<?xml version="1.0" standalone="no"?>
<!DOCTYPE svg PUBLIC "-//W3C//DTD SVG 20010904//EN"
 "http://www.w3.org/TR/2001/REC-SVG-20010904/DTD/svg10.dtd">
<svg version="1.0" xmlns="http://www.w3.org/2000/svg"
 width="956.000000pt" height="972.000000pt" viewBox="0 0 956.000000 972.000000"
 preserveAspectRatio="xMidYMid meet">

<g transform="translate(0.000000,972.000000) scale(0.100000,-0.100000)"
fill="#000000" stroke="none">
<path d="M5898 8300 c-21 -4 -76 -26 -124 -50 -68 -34 -103 -60 -163 -121 -87
-89 -101 -105 -101 -117 0 -10 -35 -52 -43 -52 -3 0 -18 -11 -33 -25 -26 -24
-54 -33 -54 -17 0 28 -142 50 -203 31 -29 -10 -40 -10 -49 -1 -27 27 -54 13
-84 -44 l-29 -55 -60 -3 c-63 -3 -102 -19 -111 -48 -3 -10 -12 -18 -20 -18 -8
0 -14 -4 -14 -8 0 -11 -59 -35 -105 -41 l-40 -6 0 -84 c0 -59 4 -86 13 -89 6
-2 12 -10 12 -17 0 -8 6 -20 14 -27 19 -20 46 -74 46 -95 0 -21 60 -93 77 -93
6 0 13 -3 15 -7 2 -5 20 -17 41 -27 l38 -20 -28 -14 c-15 -8 -40 -27 -55 -43
-15 -16 -35 -29 -46 -29 -39 0 -62 -33 -62 -89 0 -28 5 -51 10 -51 6 0 10 -9
10 -19 0 -11 6 -26 13 -33 29 -29 26 -45 -9 -64 -19 -10 -34 -22 -34 -26 0 -5
-7 -8 -15 -8 -8 0 -15 -6 -15 -14 0 -8 -7 -16 -15 -20 -8 -3 -15 -14 -15 -25
0 -11 -4 -23 -10 -26 -15 -9 -11 -97 5 -119 8 -11 15 -35 15 -53 0 -18 5 -33
10 -33 15 0 12 -53 -6 -89 -19 -37 -13 -104 11 -128 16 -16 35 -10 35 12 0 36
116 75 135 46 3 -5 19 -12 35 -16 17 -4 30 -11 30 -15 0 -5 16 -12 35 -16 19
-3 38 -10 41 -15 7 -12 60 -12 100 0 28 8 33 6 47 -19 15 -24 54 -63 116 -113
33 -26 94 -57 113 -57 10 0 18 -4 18 -10 0 -5 18 -13 40 -16 22 -4 40 -10 40
-15 0 -4 26 -11 58 -15 31 -3 62 -10 68 -15 6 -5 40 -12 75 -16 35 -3 66 -9
69 -13 24 -30 184 -54 193 -27 2 6 7 -4 11 -23 4 -19 14 -49 22 -67 12 -26 12
-40 2 -77 -7 -25 -15 -46 -19 -46 -4 0 -10 -15 -13 -32 -3 -18 -21 -63 -40
-100 -19 -36 -32 -69 -29 -72 4 -3 1 -6 -5 -6 -7 0 -12 -7 -12 -15 0 -8 -4
-15 -10 -15 -5 0 -10 -6 -10 -14 0 -8 -16 -37 -35 -66 -19 -29 -35 -56 -35
-60 0 -5 -3 -10 -7 -12 -5 -1 -26 -29 -47 -60 -22 -32 -43 -58 -47 -58 -4 0
-10 -8 -13 -18 -7 -21 -184 -204 -235 -242 -18 -14 -39 -31 -46 -37 -8 -7 -18
-13 -24 -13 -5 0 -14 -6 -18 -13 -10 -16 -148 -107 -162 -107 -6 0 -11 -4 -11
-9 0 -5 -12 -14 -27 -20 -16 -7 -48 -23 -73 -36 -25 -14 -51 -25 -57 -25 -7 0
-13 -4 -13 -9 0 -5 -13 -12 -30 -16 -16 -4 -30 -10 -30 -15 0 -4 -18 -10 -40
-14 -22 -3 -40 -11 -40 -16 0 -6 -10 -10 -22 -10 -12 0 -18 -3 -15 -7 8 -8
147 38 147 49 0 5 5 8 11 8 15 0 83 32 90 43 3 5 10 9 15 9 23 2 44 11 44 18
0 5 10 12 23 16 12 4 24 9 27 13 3 3 26 17 53 31 26 14 57 34 70 45 12 12 31
24 41 28 10 4 16 10 12 14 -3 4 4 12 18 17 59 26 273 233 336 326 14 20 36 49
60 77 5 7 10 15 10 18 0 6 41 67 51 75 4 3 10 16 14 30 4 14 11 27 15 30 14
10 122 245 127 277 3 18 10 33 14 33 5 0 9 7 9 15 0 14 20 1 65 -42 7 -7 26
-15 41 -18 16 -4 39 -11 50 -17 12 -6 45 -7 75 -4 143 17 161 18 172 7 13 -13
73 -15 81 -2 3 4 26 11 52 14 26 2 50 11 54 18 7 10 14 10 37 0 23 -9 36 -9
66 4 53 22 157 129 157 162 0 7 5 13 10 13 6 0 10 7 10 15 0 8 5 25 11 39 l12
25 34 -29 c18 -17 39 -30 46 -30 58 -3 112 -12 143 -25 47 -19 67 -19 107 2
35 18 47 31 74 82 31 60 50 73 104 73 46 -1 51 -4 103 -58 57 -60 78 -65 59
-14 -13 34 -1 94 23 121 8 8 14 21 14 27 0 7 4 12 9 12 4 0 15 28 24 63 13 55
13 70 1 117 -9 35 -12 76 -8 121 4 37 4 82 0 101 -7 37 -98 148 -121 148 -7 0
-15 4 -17 8 -1 4 -21 15 -43 23 -50 18 -91 90 -80 139 4 17 11 30 16 30 5 0 9
6 9 13 1 6 9 30 20 52 11 22 20 45 20 50 0 6 14 21 32 35 75 59 80 69 73 139
-4 45 -13 73 -30 96 -14 17 -25 35 -25 39 0 16 -30 37 -62 43 -18 3 -38 10
-44 14 -8 7 -125 23 -169 24 -24 0 -33 27 -37 120 -3 64 -8 100 -16 103 -7 2
-12 10 -12 17 0 8 -7 20 -15 29 -13 12 -13 19 -3 35 10 17 8 23 -13 40 -16 15
-32 19 -49 15 -14 -3 -66 -10 -117 -16 l-92 -10 -51 31 c-27 17 -53 31 -57 31
-9 0 -30 30 -53 76 -27 55 -73 94 -118 101 -20 3 -41 9 -47 13 -5 4 -46 10
-89 14 -44 3 -82 10 -85 15 -3 4 -22 13 -41 19 -50 16 -107 1 -139 -37 -14
-17 -30 -27 -36 -23 -5 4 -21 30 -35 57 -28 57 -100 131 -133 137 -12 2 -39 1
-59 -2z m92 -50 c49 -35 69 -78 63 -135 -3 -27 -11 -64 -19 -82 -8 -17 -14
-42 -14 -55 1 -36 40 81 42 124 1 30 3 34 15 23 7 -8 13 -18 13 -24 0 -6 4
-11 10 -11 5 0 13 -18 16 -40 4 -22 11 -43 15 -46 15 -9 10 -65 -7 -82 -18
-17 -84 -56 -126 -75 -16 -6 -28 -15 -28 -19 0 -4 -7 -8 -15 -8 -18 0 -18 1 0
36 8 16 15 39 15 52 0 12 5 22 10 22 6 0 10 9 10 20 0 38 -19 20 -26 -25 -3
-25 -10 -45 -14 -45 -4 0 -11 -12 -15 -27 -10 -41 -45 -60 -42 -23 1 11 5 20
9 20 4 0 8 5 8 11 0 20 -29 -10 -32 -34 -3 -19 -4 -20 -20 -4 -9 9 -21 17 -26
17 -17 0 -37 31 -25 38 6 4 14 37 18 75 4 37 11 70 16 73 5 3 9 16 9 30 0 15
-4 23 -10 19 -6 -4 -8 -11 -4 -16 3 -5 1 -15 -4 -22 -9 -12 -22 -80 -22 -123
-1 -33 -26 -50 -47 -33 -13 11 -17 11 -20 2 -3 -7 -9 -13 -15 -13 -6 0 -21
-11 -34 -26 -13 -14 -24 -24 -25 -22 -4 16 -11 68 -18 143 l-8 90 -1 -70 c0
-38 3 -94 7 -122 8 -54 1 -80 -17 -69 -7 4 -10 -3 -10 -16 1 -13 1 -69 0 -125
-2 -84 -5 -103 -17 -103 -8 0 -15 -4 -15 -9 0 -22 -38 -17 -58 8 -48 59 -62
80 -62 90 0 6 -4 11 -9 11 -5 0 -12 14 -16 30 -4 17 -11 30 -16 30 -5 0 -9 8
-10 18 0 10 -3 12 -6 5 -7 -19 54 -138 89 -172 17 -17 29 -33 26 -36 -3 -3
-12 0 -20 8 -7 8 -25 19 -38 26 -23 12 -23 11 3 -13 16 -14 34 -27 40 -29 9
-3 8 -11 -2 -28 -50 -82 -59 -156 -28 -218 18 -37 23 -91 8 -91 -14 0 -73 78
-95 125 -10 22 -22 48 -28 58 -5 10 -12 48 -15 85 -3 37 -9 69 -13 72 -11 9
-40 107 -40 139 0 16 4 32 9 35 4 3 11 20 15 38 9 44 58 117 110 165 37 34 45
37 54 24 9 -13 11 -11 11 12 1 15 4 27 9 27 4 0 16 17 27 37 27 50 142 166
190 193 22 12 56 31 75 42 69 41 147 48 190 18z m330 -120 c4 -7 36 -16 71
-21 35 -5 90 -13 121 -18 71 -11 112 -40 138 -96 23 -51 24 -56 8 -50 -16 6
-54 -22 -44 -32 4 -4 10 -3 14 3 12 19 59 25 66 9 3 -8 12 -15 19 -15 8 0 20
-7 27 -15 11 -13 6 -15 -38 -15 -28 0 -54 5 -57 10 -3 6 -22 10 -41 10 -19 0
-34 5 -34 10 0 6 -10 21 -23 33 -12 12 -28 34 -35 50 -10 23 -17 27 -52 27
-23 0 -50 5 -62 11 -11 6 -53 13 -93 16 -74 6 -74 6 -78 37 -4 27 -4 26 -3 -5
1 -28 -6 -43 -31 -70 l-33 -34 0 28 c0 15 -5 36 -12 47 -11 16 -9 23 9 40 28
26 31 25 36 -7 3 -20 4 -16 6 14 1 30 6 43 19 47 27 8 94 -1 102 -14z m103
-130 c61 -11 67 -14 61 -32 -4 -14 -2 -18 5 -14 18 11 13 -13 -15 -71 -14 -30
-23 -57 -21 -60 3 -2 18 22 33 54 26 54 30 57 45 42 9 -9 19 -33 22 -55 4 -21
11 -40 17 -42 5 -2 10 -9 10 -15 0 -6 10 -21 22 -34 21 -22 21 -23 2 -23 -11
0 -25 -5 -30 -10 -12 -12 -225 -19 -218 -8 9 14 14 51 6 44 -4 -4 -7 -11 -8
-14 -4 -31 -27 -61 -55 -71 -17 -6 -33 -11 -35 -11 -7 0 -27 73 -36 130 -16
110 -16 173 1 193 17 20 64 20 194 -3z m-212 -150 c5 0 9 -6 7 -12 -4 -25 13
-137 22 -143 24 -15 6 -22 -52 -23 -161 -2 -213 -26 -289 -133 -15 -22 -15
-22 -38 22 -13 24 -34 54 -47 66 -13 12 -24 30 -24 41 0 24 76 102 100 102 10
0 20 4 22 9 2 4 20 11 40 15 36 6 37 6 41 -26 3 -29 4 -28 5 10 1 23 7 42 12
42 6 0 10 -6 10 -12 0 -7 6 -2 13 11 6 13 31 34 55 46 24 13 57 38 75 57 l32
35 3 -54 c2 -29 7 -53 13 -53z m-1047 64 c23 3 49 7 59 9 34 6 130 -11 138
-25 12 -18 11 -24 -5 -41 -8 -7 -28 -40 -45 -72 -28 -51 -31 -67 -31 -141 0
-46 4 -84 8 -84 8 0 36 -102 45 -163 4 -22 1 -27 -11 -22 -19 7 -219 8 -231 1
-11 -7 -61 36 -61 52 0 7 -4 12 -8 12 -4 0 -16 25 -25 56 -13 43 -15 60 -6 70
9 12 15 12 27 2 12 -10 16 -10 19 -1 3 9 15 5 37 -12 33 -25 63 -34 51 -15 -4
6 -10 8 -14 5 -5 -2 -26 11 -49 30 -42 36 -64 47 -42 20 11 -13 10 -14 -4 -9
-9 4 -16 17 -16 34 0 16 -4 32 -10 35 -5 3 -10 28 -10 56 0 27 5 49 10 49 6 0
10 4 10 9 0 6 13 29 29 53 15 24 36 60 46 80 15 34 18 36 33 22 11 -12 26 -15
56 -10z m1704 -59 c116 0 212 -4 212 -9 0 -11 -41 -78 -56 -91 -25 -21 -45
-63 -34 -70 10 -6 49 31 50 49 0 4 6 6 14 3 8 -3 22 3 32 14 17 18 17 18 30
-7 9 -16 14 -59 14 -112 0 -63 4 -90 16 -103 8 -9 18 -42 21 -72 5 -50 3 -57
-20 -77 -18 -16 -24 -28 -18 -39 10 -20 3 -44 -28 -98 -14 -25 -32 -43 -42
-43 -10 0 -20 -4 -23 -9 -4 -5 -24 -12 -46 -16 -22 -4 -40 -11 -40 -16 0 -5
-7 -9 -15 -9 -11 0 -15 12 -15 48 0 55 -27 227 -40 257 -5 11 -9 28 -9 38 0 9
-1 43 -1 75 -1 59 -26 110 -69 141 -18 13 -18 16 -3 40 8 14 22 32 31 39 13
11 13 12 -2 12 -10 0 -21 -8 -24 -17 -4 -10 -15 -27 -25 -38 -15 -16 -22 -17
-37 -8 -10 6 -36 15 -57 19 -43 7 -62 23 -86 71 -19 38 -14 45 26 36 17 -4
127 -8 244 -8z m-1098 -14 c0 -5 10 -12 23 -15 12 -3 30 -13 41 -21 18 -13 18
-15 1 -31 -17 -17 -18 -17 -31 1 -8 10 -14 25 -14 32 0 7 -4 13 -9 13 -6 0 -3
-16 5 -35 13 -32 13 -38 -1 -58 -8 -12 -15 -30 -15 -41 0 -20 -1 -20 -22 2
-27 26 -30 80 -8 130 14 30 30 43 30 23z m-787 -41 c-3 -11 -9 -20 -14 -20 -5
0 -9 -7 -9 -16 0 -8 -4 -13 -8 -10 -5 3 -5 -16 -1 -42 4 -26 8 -86 8 -134 1
-48 6 -90 11 -93 6 -3 10 -15 10 -25 0 -10 6 -25 13 -32 7 -7 16 -21 20 -30 3
-10 11 -18 17 -18 20 0 9 -21 -17 -31 -14 -5 -36 -21 -48 -35 l-21 -25 -47 21
c-53 24 -111 77 -120 109 -6 25 -3 26 17 5 9 -8 16 -11 16 -5 0 6 8 11 18 12
9 0 3 6 -15 12 -21 8 -48 34 -78 74 -41 58 -45 67 -45 122 0 59 0 59 33 66 28
6 65 20 119 46 27 14 61 11 52 -3 -6 -10 -5 -10 8 -1 8 7 17 10 21 7 3 -3 3 4
0 16 -5 17 -11 20 -30 15 -21 -5 -22 -4 -11 15 10 15 23 20 59 20 42 0 47 -2
42 -20z m715 -18 c-10 -26 -10 -39 1 -64 7 -18 14 -41 14 -50 1 -10 8 -18 17
-18 18 0 79 -54 103 -92 21 -34 22 -104 2 -124 -8 -9 -15 -21 -15 -27 1 -7 9
-2 19 10 30 36 66 34 75 -3 5 -17 -1 -40 -15 -70 -26 -51 -22 -63 11 -34 26
23 50 15 77 -26 16 -25 16 -26 -13 -50 -55 -46 -64 -48 -64 -16 0 31 -53 102
-76 102 -8 0 -14 4 -14 9 0 5 -13 12 -30 16 -26 6 -50 38 -37 52 8 7 -25 43
-39 43 -25 0 -35 143 -11 166 4 4 7 14 7 23 0 10 -8 4 -20 -14 -11 -16 -20
-38 -20 -47 0 -10 -4 -18 -10 -18 -17 0 -16 202 1 208 5 2 9 8 9 13 0 9 33 47
37 44 2 -1 -3 -16 -9 -33z m1402 5 c0 -2 -9 -14 -20 -27 -22 -25 -26 -20 -10
11 9 16 30 27 30 16z m-386 -66 c3 -5 18 -12 32 -15 15 -4 42 -23 61 -42 30
-31 34 -41 31 -82 -3 -59 11 -165 23 -172 5 -4 11 -60 15 -125 3 -66 10 -136
14 -156 12 -59 -5 -203 -31 -257 -27 -55 -78 -115 -93 -108 -6 2 -20 7 -31 11
-16 5 -15 4 3 -7 l22 -14 -25 -22 c-36 -31 -67 -42 -88 -30 -16 8 -16 11 -2
24 8 9 27 31 42 50 15 21 32 33 40 30 10 -4 11 -1 5 11 -6 10 -4 26 6 47 8 17
20 40 25 51 5 10 12 78 15 151 4 124 3 134 -17 168 -12 20 -33 44 -47 55 -13
10 -24 21 -24 24 0 3 21 7 47 9 31 2 48 8 50 18 4 12 2 12 -5 2 -5 -8 -26 -12
-55 -11 -44 3 -51 8 -48 36 1 6 -3 14 -9 18 -13 8 -13 56 0 89 6 18 5 37 -5
66 -11 30 -11 47 -4 70 6 16 14 30 18 30 4 0 13 11 19 25 6 14 9 25 6 25 -10
0 -43 -44 -44 -57 0 -7 -4 -13 -10 -13 -5 0 -10 -6 -10 -14 0 -7 -18 4 -40 25
-22 22 -46 39 -54 39 -7 0 -19 6 -26 14 -9 12 -5 16 27 21 21 3 45 10 53 15
20 12 107 13 114 1z m-246 -17 c29 -8 29 -45 0 -92 -15 -24 -17 -33 -7 -30 8
3 13 11 12 17 -2 6 2 11 7 11 6 0 10 7 10 15 0 8 5 15 11 15 5 0 7 5 4 10 -23
37 76 -31 110 -75 19 -25 25 -46 25 -82 0 -54 -5 -64 -40 -81 -14 -6 -18 -11
-10 -11 44 3 50 -1 50 -35 0 -19 6 -37 13 -39 6 -3 -6 -6 -28 -6 -29 -1 -50
-9 -77 -31 -31 -26 -37 -28 -48 -15 -10 12 -10 15 1 15 7 0 2 11 -13 28 -15
15 -28 40 -30 56 -2 24 2 31 22 37 16 6 10 6 -18 3 -36 -5 -41 -3 -36 10 3 9
10 16 15 16 6 0 20 10 32 21 20 19 17 19 -23 -4 -53 -29 -81 -26 -53 5 18 20
18 21 -4 9 -21 -10 -53 -6 -53 8 0 3 -19 17 -43 30 -57 31 -90 77 -74 102 7
11 18 17 24 14 7 -2 13 2 13 10 0 8 5 15 12 15 6 0 34 11 62 24 28 14 62 27
76 29 14 2 27 5 30 6 3 0 15 -2 28 -5z m-258 -77 c-1 -23 -14 -37 -30 -32 -26
8 -64 -13 -84 -47 -11 -18 -23 -27 -32 -24 -8 3 -17 -1 -20 -9 -4 -8 -13 -15
-20 -15 -8 0 -17 -7 -20 -15 -4 -8 -11 -15 -17 -15 -6 0 -18 -7 -28 -16 -16
-15 -19 -14 -40 5 l-22 20 26 38 c41 62 80 98 117 110 37 12 170 12 170 0z m5
-92 c11 -11 37 -31 57 -45 20 -13 34 -29 31 -34 -3 -5 -8 -24 -10 -43 -3 -25
0 -33 13 -33 12 0 14 4 7 13 -10 11 -10 44 0 53 18 18 112 -59 123 -100 3 -14
10 -29 15 -32 22 -13 6 -22 -23 -13 -18 5 -45 9 -60 9 -18 0 -32 8 -40 23 -7
12 -24 23 -38 24 -14 1 -38 5 -53 9 -31 7 -102 -11 -128 -33 -8 -7 -25 -13
-37 -13 -24 0 -37 -15 -22 -25 6 -4 8 -11 5 -16 -9 -14 -35 -11 -35 4 0 16
-52 67 -68 67 -30 0 3 66 52 103 42 32 50 34 43 6 -7 -27 13 -20 33 13 41 68
55 88 63 88 5 0 6 -8 3 -17 -2 -10 -7 -43 -10 -73 -5 -49 -4 -51 5 -20 6 19
10 45 10 58 -1 12 4 22 10 22 6 0 9 9 6 19 -6 24 18 17 48 -14z m-561 -13 c3
-5 7 -19 10 -33 7 -41 17 -59 38 -70 14 -8 19 -18 15 -35 -3 -17 2 -30 19 -43
l22 -18 -27 -31 c-14 -18 -32 -32 -38 -32 -6 0 -13 -3 -15 -8 -1 -4 -19 -18
-38 -30 -28 -19 -30 -22 -10 -16 14 3 32 13 41 20 8 8 18 14 22 14 3 0 24 18
46 39 37 36 43 39 64 28 68 -36 96 -80 83 -132 -5 -21 -13 -25 -66 -31 -33 -4
-60 -11 -60 -15 0 -5 -8 -9 -18 -9 -47 0 -122 -121 -122 -197 0 -21 -2 -23
-15 -10 -33 34 -56 94 -50 136 3 25 1 41 -6 41 -5 0 -8 -4 -5 -8 2 -4 1 -14
-5 -22 -5 -10 -9 24 -9 93 0 110 7 138 49 190 13 16 13 17 -1 12 -9 -4 -25
-24 -36 -46 -15 -29 -22 -36 -30 -27 -34 44 -24 130 21 179 47 50 108 81 121
61z m1676 -32 c8 -4 33 -11 54 -14 42 -8 66 -26 66 -49 0 -8 7 -20 15 -27 8
-7 18 -30 21 -52 4 -21 11 -41 15 -44 23 -14 -1 -48 -75 -108 -23 -19 -36 -38
-36 -53 0 -13 -4 -23 -9 -23 -5 0 -12 -12 -15 -26 -4 -14 -14 -37 -23 -51 -15
-22 -17 -23 -32 -8 -11 11 -16 35 -16 79 -1 87 -10 96 -101 96 -61 0 -72 2
-68 15 4 9 11 15 18 14 26 -3 46 2 46 12 0 6 -9 8 -21 4 -19 -6 -20 -4 -13 27
4 18 7 41 6 52 0 10 10 29 24 42 26 27 28 39 15 97 l-9 38 61 -7 c34 -4 69
-10 77 -14z m-2013 -150 c29 -13 44 -27 49 -44 3 -14 10 -26 15 -26 5 0 9 -6
9 -14 0 -7 18 -30 40 -50 22 -20 40 -40 40 -45 0 -5 7 -14 15 -21 8 -7 15 -28
15 -47 0 -31 -2 -34 -22 -28 -23 7 -23 7 -3 -8 11 -8 23 -13 27 -11 5 3 8 -5
8 -17 0 -18 -2 -19 -15 -9 -10 8 -15 9 -15 1 0 -6 11 -13 25 -17 14 -4 25 -13
25 -23 0 -10 13 -35 30 -57 32 -43 37 -60 18 -67 -7 -2 -1 -2 14 0 22 4 29 -1
43 -31 18 -37 14 -56 -11 -56 -8 0 -14 -4 -14 -10 0 -14 11 -12 29 4 11 10 21
12 31 6 12 -8 12 -10 1 -10 -19 0 -51 -39 -51 -62 0 -10 -4 -18 -9 -18 -5 0
-12 -11 -15 -25 -4 -14 -10 -23 -15 -21 -5 3 -42 -2 -82 -10 -147 -32 -200
-29 -279 15 -8 4 -26 14 -40 21 -14 8 -55 15 -93 15 -53 2 -71 6 -82 21 -24
30 -55 96 -55 115 0 10 -14 31 -31 46 -100 92 -149 158 -149 201 0 10 -5 23
-12 30 -9 9 -8 17 2 37 18 33 57 39 194 32 150 -9 126 15 -42 41 l-43 7 38 20
c21 11 44 25 50 32 7 6 21 10 30 9 10 -2 12 -1 6 1 -23 8 -14 30 20 45 86 42
99 45 197 46 45 1 78 -4 107 -18z m874 -27 c1 -17 2 -17 6 0 7 25 84 24 107
-2 17 -18 16 -20 -4 -26 -29 -9 -53 -49 -45 -76 5 -14 2 -25 -6 -30 -21 -13
-29 -11 -29 7 0 8 -7 22 -15 30 -8 8 -12 21 -9 29 4 8 1 15 -5 15 -6 0 -11 -4
-11 -10 0 -15 -27 -12 -60 5 -35 18 -31 37 13 59 42 20 57 20 58 -1z m478 -27
c32 -17 59 -46 42 -46 -6 0 -11 5 -11 10 0 6 -9 10 -20 10 -31 0 -24 -17 11
-24 58 -11 63 -25 61 -159 -1 -67 -7 -126 -12 -131 -6 -6 -10 -16 -10 -24 0
-18 -31 -83 -47 -100 -7 -7 -13 -16 -13 -20 0 -4 -22 -30 -48 -58 -26 -28 -67
-74 -91 -101 -34 -39 -49 -49 -70 -47 -14 2 -18 1 -8 -2 9 -3 17 -8 17 -12 0
-13 -75 -73 -97 -78 -13 -4 -23 -10 -23 -14 0 -8 -69 -24 -76 -17 -2 2 4 12
14 23 9 11 26 35 36 54 39 70 112 159 148 182 21 13 38 26 38 30 0 3 14 9 30
13 17 4 30 11 30 16 0 5 13 9 29 9 16 0 34 7 41 15 11 13 8 15 -19 15 -22 0
-31 5 -31 17 0 31 39 98 70 118 16 11 30 24 30 28 0 5 7 15 15 23 34 35 10
164 -31 164 -8 0 -14 5 -14 10 0 14 -38 12 -85 -5 -61 -22 -68 -20 -62 15 8
35 37 67 80 85 40 18 42 18 76 1z m-220 -16 c9 0 24 -7 35 -15 17 -13 17 -16
2 -45 -12 -25 -13 -35 -3 -51 14 -23 34 -32 42 -19 23 37 53 -23 40 -79 -5
-24 -10 -28 -28 -23 -19 4 -17 1 8 -19 71 -56 70 -52 41 -98 -14 -22 -26 -53
-26 -68 0 -35 -9 -48 -39 -58 -28 -9 -51 -26 -115 -88 -37 -35 -52 -44 -58
-35 -6 9 -8 5 -6 -12 3 -32 -49 -117 -77 -124 -11 -3 -30 -6 -42 -6 -13 0 -23
-3 -23 -7 0 -5 -15 -9 -32 -10 -24 -2 -40 5 -61 25 l-29 27 7 -25 c7 -21 6
-22 -7 -10 -8 8 -19 23 -25 34 -6 11 -13 14 -17 8 -3 -6 1 -17 9 -25 8 -9 15
-20 15 -26 0 -13 -17 -15 -24 -2 -3 4 -28 11 -55 15 -27 4 -62 13 -78 21 -15
8 -34 15 -41 15 -7 0 -20 4 -30 9 -82 42 -143 65 -174 65 -20 0 -33 3 -29 6 4
3 11 18 15 34 9 35 26 53 60 62 14 3 26 10 26 15 0 23 29 6 35 -21 4 -16 10
-30 15 -30 5 0 10 -6 13 -12 2 -7 2 -2 0 12 -3 14 -9 27 -14 28 -12 5 -12 49
0 57 5 3 11 0 14 -7 2 -7 3 -5 1 5 -4 28 45 66 94 73 25 4 76 4 115 1 54 -5
79 -2 104 10 38 18 53 12 32 -14 -9 -11 -10 -14 -1 -9 8 5 12 0 12 -13 0 -12
4 -21 9 -21 5 0 11 -6 14 -12 2 -7 2 0 0 15 -5 27 -4 28 16 15 12 -7 21 -16
21 -19 0 -3 21 -14 47 -24 33 -13 48 -15 51 -7 2 7 14 12 26 12 60 0 92 76 57
135 l-21 36 25 9 c29 11 61 -4 69 -30 3 -13 4 -13 5 0 1 20 -6 28 -70 83 -52
44 -57 51 -62 100 -5 41 -12 57 -34 75 l-28 22 25 20 c28 22 62 29 104 24 16
-2 36 -4 45 -4z m-342 -40 c21 -11 46 -20 55 -20 12 0 18 -8 18 -22 0 -44 -12
-66 -46 -84 -19 -10 -34 -21 -34 -24 0 -3 -16 -14 -35 -24 -19 -11 -35 -23
-35 -28 0 -11 6 -10 22 5 30 30 109 67 141 67 43 0 63 -22 70 -79 3 -26 15
-54 30 -70 24 -26 57 -90 57 -110 0 -14 -63 -25 -92 -15 -12 4 -42 26 -66 50
-47 48 -57 51 -86 29 -22 -17 -82 -20 -91 -5 -8 12 -82 13 -89 1 -3 -4 -25
-11 -50 -13 -33 -4 -54 -15 -86 -44 -54 -50 -67 -57 -95 -50 -25 6 -33 27 -42
116 -3 37 -1 60 6 64 6 4 11 18 11 31 0 30 60 95 88 95 11 0 24 5 27 10 3 6
22 10 42 10 38 0 88 26 141 75 30 27 75 53 95 55 4 0 24 -9 44 -20z m1118 -46
c19 -5 17 -9 -21 -50 -66 -71 -67 -144 -3 -225 40 -51 35 -79 -25 -142 -25
-26 -46 -54 -46 -62 0 -8 -4 -15 -10 -15 -5 0 -12 -16 -16 -35 -3 -19 -10 -35
-14 -35 -5 0 -10 -50 -12 -112 -2 -78 -7 -113 -15 -116 -7 -2 -13 -10 -13 -17
0 -7 -16 -27 -35 -44 -35 -31 -68 -40 -79 -22 -10 15 -139 97 -166 106 -14 4
-34 14 -45 21 -11 8 -30 14 -42 14 -13 0 -23 4 -23 9 0 5 -21 12 -46 16 -26 4
-54 10 -63 15 -9 5 -36 12 -60 17 l-44 8 62 63 63 62 42 -35 c60 -49 69 -44
13 8 -41 38 -44 44 -32 61 13 18 16 18 39 2 14 -9 32 -16 40 -16 8 0 19 -6 23
-14 4 -7 40 -36 78 -65 39 -28 75 -54 80 -58 11 -8 52 -28 118 -57 43 -18 83
-23 57 -6 -16 10 -92 34 -99 30 -2 -1 -7 2 -10 7 -3 4 -22 17 -41 27 -19 11
-39 25 -43 33 -4 7 -14 13 -20 13 -7 0 -36 22 -66 48 -47 43 -51 49 -37 61 14
12 19 11 31 -5 8 -10 15 -14 15 -7 0 6 -4 15 -10 18 -15 10 -12 25 8 32 19 8
90 78 109 108 42 68 53 109 53 202 0 80 2 94 18 99 9 3 25 10 34 15 10 5 23 9
29 9 6 0 25 7 42 15 41 18 144 30 182 19z m-925 -44 c0 -33 -24 -50 -43 -31
-6 6 -25 12 -41 12 -20 1 -24 3 -12 6 10 3 33 14 50 24 41 25 46 24 46 -11z
m378 11 c8 -4 14 -29 14 -58 1 -43 -3 -55 -29 -83 -30 -32 -32 -32 -49 -16
-13 13 -17 32 -15 76 1 32 -3 61 -9 65 -5 3 -10 10 -10 16 0 11 80 12 98 0z
m580 -63 c8 -24 29 -68 47 -98 38 -63 65 -138 65 -180 0 -16 5 -32 10 -35 12
-8 13 -172 1 -179 -5 -3 -12 -17 -15 -32 -8 -30 -41 -68 -53 -61 -4 3 -9 -6
-9 -20 -1 -13 -4 -26 -5 -27 -85 -67 -168 -120 -212 -134 l-55 -19 29 37 c36
44 58 129 59 219 0 76 26 136 84 193 21 22 44 55 51 75 11 33 13 34 19 15 4
-12 12 -22 17 -22 5 0 9 -6 9 -14 0 -7 7 -19 15 -26 12 -10 15 -10 15 4 0 9
-3 16 -7 16 -5 0 -16 12 -25 28 -9 15 -40 58 -67 96 -59 81 -64 113 -26 169
14 20 29 37 33 37 4 0 13 -19 20 -42z m-941 -18 c-3 -12 -1 -18 5 -14 6 4 8
-1 4 -13 -4 -12 -1 -25 9 -33 8 -7 15 -26 15 -42 0 -16 7 -36 15 -44 8 -9 15
-27 14 -42 l-1 -27 -10 30 c-6 17 -21 44 -33 61 -40 52 -56 102 -42 125 16 25
31 25 24 -1z m63 -60 c0 -6 -7 -10 -15 -10 -8 0 -15 7 -15 16 0 9 -5 12 -12 8
-7 -4 -8 -3 -4 4 8 14 46 -2 46 -18z m-1549 -114 c11 -14 27 -27 37 -30 23 -8
62 -67 62 -94 0 -12 5 -22 10 -22 6 0 10 -6 10 -14 0 -7 9 -25 21 -40 20 -26
20 -28 4 -46 -11 -12 -13 -20 -7 -20 7 0 12 4 12 9 0 10 30 24 37 17 2 -2 -3
-11 -12 -20 -21 -20 -13 -47 29 -95 34 -37 78 -120 71 -131 -2 -3 -22 -7 -44
-8 -38 -3 -157 36 -188 60 -16 13 -117 12 -121 -1 -2 -6 -9 -11 -15 -11 -6 0
-19 -7 -29 -17 -17 -15 -18 -14 -18 30 0 26 4 47 10 47 18 0 23 68 6 101 -24
48 -20 62 22 81 33 16 27 18 -18 7 -8 -2 -14 2 -12 9 1 8 -2 11 -7 7 -15 -9
-31 28 -20 46 5 7 9 24 9 36 0 28 55 91 86 99 13 3 24 10 24 15 0 17 22 9 41
-15z m2634 -78 c8 -7 29 -24 46 -38 17 -14 42 -42 56 -63 22 -34 24 -49 23
-125 -1 -48 2 -125 5 -172 7 -77 6 -87 -13 -110 -18 -21 -21 -22 -22 -7 0 9
-4 17 -8 17 -5 0 -14 10 -19 23 -20 43 -113 147 -131 146 -16 -1 -16 -2 1 -6
9 -2 17 -8 17 -13 0 -5 15 -25 34 -45 19 -20 50 -62 69 -95 l36 -59 -28 -53
-27 -53 -22 24 c-18 20 -34 26 -80 28 -67 4 -100 -10 -122 -52 -8 -17 -18 -31
-22 -33 -5 -2 -8 -9 -8 -16 0 -7 -9 -22 -20 -34 -25 -27 -99 -30 -144 -7 -15
8 -52 15 -82 15 -42 0 -58 5 -73 21 -27 29 -12 59 29 59 17 0 30 5 30 10 0 6
5 10 10 10 6 0 10 -7 10 -17 0 -9 3 -14 6 -10 9 8 -16 77 -28 77 -5 0 -8 5 -6
12 3 7 33 19 69 29 78 20 131 41 142 54 4 6 11 4 18 -5 8 -12 9 -11 5 5 -5 16
5 29 43 58 27 21 62 55 77 75 47 61 46 61 74 43 29 -18 67 -57 73 -74 2 -7 8
-9 12 -5 9 9 -75 96 -90 94 -5 0 -11 7 -13 17 -4 20 27 24 46 5 9 -9 12 -9 12
1 0 7 -9 15 -21 18 -17 5 -20 11 -15 36 3 16 6 53 6 83 0 47 3 53 23 57 19 4
18 4 -5 6 -25 1 -28 5 -28 34 0 18 -6 39 -12 46 -11 11 -7 13 20 7 18 -3 40
-11 47 -18z m-2310 -183 c17 -4 37 -13 45 -20 34 -29 119 -48 187 -41 36 4 74
11 83 16 53 28 258 25 263 -4 1 -5 13 -10 27 -11 14 -1 40 -10 57 -19 18 -9
40 -16 49 -16 12 0 -1 -19 -42 -61 -82 -85 -94 -98 -94 -104 0 -3 -11 -18 -25
-33 -22 -24 -33 -52 -20 -52 2 0 22 26 43 58 22 31 66 83 98 116 60 61 59 61
139 43 27 -6 35 -19 25 -37 -13 -24 -13 -81 -1 -114 6 -13 11 -60 13 -104 2
-63 -1 -86 -16 -115 -26 -48 -82 -65 -163 -48 -48 9 -64 19 -100 57 -24 24
-46 57 -49 72 -4 15 -10 32 -14 37 -5 6 -11 31 -15 58 -4 26 -11 47 -16 47 -5
0 -9 7 -9 16 0 14 -7 16 -43 11 -30 -4 -54 0 -86 14 -31 14 -65 19 -123 19
-80 0 -158 18 -209 50 -24 14 -26 17 -13 35 13 17 14 17 14 2 0 -14 4 -16 19
-7 11 5 34 10 52 10 18 0 29 3 25 8 -4 4 -37 7 -72 7 -47 0 -63 -3 -59 -12 7
-19 2 -17 -48 30 -54 49 -61 81 -21 94 31 10 57 10 99 -2z m1077 -158 c-12 -6
-22 -14 -22 -19 0 -17 -60 -8 -81 13 l-20 20 55 -2 c31 -1 59 0 62 4 4 4 12 4
17 0 6 -4 2 -11 -11 -16z m-180 -9 c-1 -8 5 -21 13 -28 9 -7 15 -8 15 -2 0 6
-4 12 -9 14 -5 2 -3 9 5 16 12 11 14 10 14 -3 0 -8 5 -15 10 -15 6 0 10 -8 10
-18 0 -10 7 -27 15 -38 13 -17 14 -17 15 -1 0 9 -4 17 -10 17 -5 0 -10 3 -10
8 0 4 36 7 80 8 47 0 86 6 92 12 7 7 24 12 38 12 14 0 35 7 46 15 21 16 129
21 138 6 3 -4 29 -11 58 -15 29 -4 57 -11 63 -15 5 -4 39 -18 75 -31 36 -13
67 -26 70 -29 3 -3 22 -14 42 -25 41 -20 138 -108 138 -124 0 -6 6 -13 13 -15
7 -3 5 -6 -5 -6 -10 -1 -18 -5 -18 -11 0 -21 -23 -9 -67 35 -24 25 -49 45 -55
45 -6 0 -16 6 -22 14 -18 23 -134 78 -153 73 -14 -4 -13 -5 5 -6 12 0 22 -4
22 -9 0 -4 24 -18 53 -32 28 -13 58 -30 65 -37 7 -7 17 -13 22 -13 17 0 90
-79 85 -92 -8 -20 -65 -53 -65 -37 0 15 -29 49 -42 49 -6 0 2 -14 16 -31 14
-17 26 -41 26 -54 0 -27 -26 -78 -58 -114 -12 -14 -24 -33 -27 -41 -9 -28 -69
-60 -112 -60 -51 0 -130 55 -173 120 -8 12 -19 28 -25 34 -5 6 -19 28 -29 49
-11 20 -23 37 -28 37 -10 0 -11 -37 0 -42 4 -1 16 -20 26 -41 11 -21 28 -48
39 -60 10 -12 26 -31 36 -43 10 -11 29 -28 42 -37 27 -19 14 -43 -18 -33 -33
10 -143 127 -143 151 0 3 -6 13 -12 21 -29 34 -34 41 -50 74 -9 19 -26 58 -38
85 -12 28 -25 59 -30 70 -4 11 -14 41 -20 68 -15 56 -31 73 -19 19 19 -83 34
-132 41 -132 5 0 8 -5 8 -11 0 -12 40 -102 49 -109 3 -3 17 -26 31 -52 13 -27
28 -48 32 -48 3 0 9 -8 12 -17 8 -24 59 -80 99 -110 l32 -25 -100 3 c-55 1
-136 1 -180 0 -44 -2 -94 1 -110 5 -38 9 -101 73 -122 121 -19 47 -27 93 -15
93 5 0 21 26 37 57 29 60 29 61 6 213 -11 77 -3 142 18 138 9 -2 15 -11 13
-20z m-842 -52 c19 -8 52 -17 73 -21 29 -5 37 -11 38 -28 1 -15 3 -17 6 -6 8
32 99 39 152 13 18 -9 50 -17 72 -18 46 -1 63 -21 74 -83 4 -24 11 -45 16 -49
5 -3 9 -14 9 -24 0 -10 6 -25 13 -32 37 -40 38 -45 10 -41 -16 3 -37 8 -48 13
-11 4 -61 17 -111 29 -91 21 -148 43 -159 62 -4 5 -15 9 -25 9 -10 0 -25 6
-32 13 -7 6 -29 23 -48 36 -36 24 -80 78 -113 139 l-18 34 28 -16 c15 -8 44
-22 63 -30z"/>
<path d="M5497 7845 c9 -43 32 -94 33 -72 0 9 -4 25 -9 35 -5 9 -14 28 -20 42
-10 24 -10 24 -4 -5z"/>
<path d="M5363 7468 c2 -7 10 -12 16 -10 6 1 11 -2 11 -7 0 -5 8 -12 17 -15
13 -5 11 0 -6 18 -26 28 -46 34 -38 14z"/>
<path d="M6170 7774 c0 -14 4 -23 9 -20 5 3 7 15 4 26 -7 28 -13 25 -13 -6z"/>
<path d="M6184 7731 c4 -6 2 -19 -5 -27 -13 -16 -6 -30 10 -19 15 8 14 42 -1
51 -7 4 -8 3 -4 -5z"/>
<path d="M6000 7721 c0 -6 5 -13 10 -16 6 -3 10 1 10 9 0 9 -4 16 -10 16 -5 0
-10 -4 -10 -9z"/>
<path d="M5170 7892 c0 -6 6 -17 13 -24 7 -7 22 -29 35 -48 13 -20 22 -28 22
-19 0 9 -7 22 -15 29 -8 7 -15 18 -15 25 0 6 -9 20 -20 30 -11 10 -20 13 -20
7z"/>
<path d="M5240 7848 c0 -13 39 -76 43 -71 7 7 -18 59 -33 68 -5 3 -10 5 -10 3z"/>
<path d="M5190 7611 c24 -20 40 -26 40 -16 0 2 -15 12 -32 20 l-33 16 25 -20z"/>
<path d="M5251 7591 c-10 -6 -10 -10 -1 -16 13 -8 24 -1 19 14 -3 6 -10 7 -18
2z"/>
<path d="M5204 7425 c11 -8 38 -14 60 -14 34 2 36 3 11 6 -16 3 -34 9 -39 14
-6 5 -19 9 -30 9 -21 -1 -21 -1 -2 -15z"/>
<path d="M7020 7470 c-20 -6 -21 -8 -5 -8 11 0 29 3 40 8 25 11 -1 11 -35 0z"/>
<path d="M6908 7463 c7 -3 16 -2 19 1 4 3 -2 6 -13 5 -11 0 -14 -3 -6 -6z"/>
<path d="M6916 7425 c-25 -19 -16 -19 20 0 16 8 22 15 14 15 -8 -1 -24 -7 -34
-15z"/>
<path d="M7070 7329 c0 -5 5 -7 10 -4 6 3 10 8 10 11 0 2 -4 4 -10 4 -5 0 -10
-5 -10 -11z"/>
<path d="M4868 7413 c7 -3 16 -2 19 1 4 3 -2 6 -13 5 -11 0 -14 -3 -6 -6z"/>
<path d="M6806 7561 c-3 -5 1 -11 9 -14 9 -4 12 -1 8 9 -6 16 -10 17 -17 5z"/>
<path d="M6808 7413 c-16 -2 -28 -8 -28 -13 0 -5 -21 -12 -46 -16 -25 -3 -42
-10 -37 -15 9 -9 121 25 137 41 6 6 8 9 6 9 -3 -1 -17 -4 -32 -6z"/>
<path d="M6750 6791 c0 -5 7 -11 14 -14 10 -4 13 -1 9 9 -6 15 -23 19 -23 5z"/>
<path d="M6344 7613 c-3 -16 -12 -41 -19 -57 -13 -30 -10 -56 7 -56 5 0 8 6 7
13 -3 21 13 97 22 103 12 7 11 24 -1 24 -5 0 -12 -12 -16 -27z"/>
<path d="M6588 7473 c-10 -2 -18 -9 -18 -14 0 -5 -7 -9 -15 -9 -8 0 -15 -5
-15 -11 0 -6 17 0 38 12 53 32 53 34 10 22z"/>
<path d="M6030 7340 c0 -11 5 -20 10 -20 6 0 10 9 10 20 0 11 -4 20 -10 20 -5
0 -10 -9 -10 -20z"/>
<path d="M5594 7090 c-24 -9 -41 -30 -25 -30 5 0 13 4 16 10 3 5 20 14 38 19
19 5 24 9 12 9 -11 1 -30 -3 -41 -8z"/>
<path d="M7414 7434 c3 -8 6 -18 6 -20 0 -3 5 -2 10 1 15 9 12 22 -6 29 -12 5
-15 2 -10 -10z"/>
<path d="M7218 7263 c7 -3 16 -2 19 1 4 3 -2 6 -13 5 -11 0 -14 -3 -6 -6z"/>
<path d="M5228 7153 c7 -3 16 -2 19 1 4 3 -2 6 -13 5 -11 0 -14 -3 -6 -6z"/>
<path d="M5268 7143 c6 -2 18 -2 25 0 6 3 1 5 -13 5 -14 0 -19 -2 -12 -5z"/>
<path d="M5318 7123 c6 -2 18 -2 25 0 6 3 1 5 -13 5 -14 0 -19 -2 -12 -5z"/>
<path d="M5378 7104 c12 -8 28 -13 35 -11 7 3 5 6 -5 6 -10 1 -18 6 -18 11 0
6 -8 10 -17 10 -14 0 -13 -3 5 -16z"/>
<path d="M5362 7055 c10 -10 49 -14 43 -4 -4 5 -16 9 -27 9 -12 0 -19 -2 -16
-5z"/>
<path d="M5440 7027 c14 -8 27 -12 30 -10 7 6 -23 23 -40 23 -8 0 -4 -6 10
-13z"/>
<path d="M5227 6960 c7 -8 60 -13 155 -15 l143 -3 -110 8 c-60 5 -130 11 -155
15 -35 5 -42 4 -33 -5z"/>
<path d="M5490 6870 c-12 -8 -10 -10 8 -10 13 0 20 4 17 10 -7 12 -6 12 -25 0z"/>
<path d="M5448 6863 c7 -3 16 -2 19 1 4 3 -2 6 -13 5 -11 0 -14 -3 -6 -6z"/>
<path d="M4973 6853 c15 -2 37 -2 50 0 12 2 0 4 -28 4 -27 0 -38 -2 -22 -4z"/>
<path d="M5470 6830 c-34 -7 -34 -7 -5 -8 17 0 41 4 55 8 33 11 0 11 -50 0z"/>
<path d="M5370 6683 c-14 -3 -30 -9 -36 -14 -6 -5 -30 -10 -53 -11 -40 -1 -52
-10 -30 -24 6 -3 14 -2 18 3 3 6 28 13 55 16 27 4 54 11 60 16 6 5 20 11 31
14 l20 5 -20 -1 c-11 0 -31 -2 -45 -4z"/>
<path d="M6161 7304 c0 -11 3 -14 6 -6 3 7 2 16 -1 19 -3 4 -6 -2 -5 -13z"/>
<path d="M6624 7255 c-16 -12 -17 -14 -3 -15 9 0 19 7 23 15 7 19 5 19 -20 0z"/>
<path d="M6632 6864 c-13 -6 -20 -14 -15 -17 8 -5 50 20 42 26 -2 2 -15 -2
-27 -9z"/>
<path d="M6485 7087 c17 -8 32 -13 34 -11 7 7 -3 12 -34 19 l-30 6 30 -14z"/>
<path d="M6142 6759 c-1 -20 1 -39 5 -43 4 -3 8 -12 9 -19 1 -7 7 -23 13 -37
10 -22 11 -20 5 15 -3 22 -10 42 -14 45 -5 3 -10 21 -13 40 l-4 35 -1 -36z"/>
<path d="M6020 6616 c0 -8 4 -17 9 -20 5 -4 7 3 4 14 -6 23 -13 26 -13 6z"/>
<path d="M6230 7018 c0 -10 -7 -18 -15 -18 -8 0 -15 -4 -15 -10 0 -14 19 -12
35 3 8 9 10 19 4 28 -7 11 -9 11 -9 -3z"/>
<path d="M5987 6999 c-15 -11 -27 -27 -27 -34 0 -8 13 0 30 17 37 36 34 47 -3
17z"/>
<path d="M6010 6945 c-13 -14 -20 -25 -16 -25 11 0 50 39 44 45 -2 3 -15 -6
-28 -20z"/>
<path d="M5760 6950 c-18 -12 -2 -12 25 0 13 6 15 9 5 9 -8 0 -22 -4 -30 -9z"/>
<path d="M5681 6936 c-6 -7 -9 -21 -5 -30 3 -9 1 -16 -6 -16 -6 0 -8 -5 -5
-10 4 -7 13 -4 23 8 10 11 27 22 40 26 12 4 20 12 17 17 -3 5 -17 1 -31 -7
-29 -20 -42 -13 -19 10 9 9 12 16 7 16 -5 0 -15 -6 -21 -14z"/>
<path d="M6943 7093 c9 -2 25 -2 35 0 9 3 1 5 -18 5 -19 0 -27 -2 -17 -5z"/>
<path d="M6970 6960 c0 -5 7 -10 16 -10 8 0 12 5 9 10 -3 6 -10 10 -16 10 -5
0 -9 -4 -9 -10z"/>
<path d="M6938 6943 c7 -3 16 -2 19 1 4 3 -2 6 -13 5 -11 0 -14 -3 -6 -6z"/>
<path d="M7028 6943 c7 -3 16 -2 19 1 4 3 -2 6 -13 5 -11 0 -14 -3 -6 -6z"/>
<path d="M7070 6930 c0 -6 7 -10 15 -10 8 0 15 2 15 4 0 2 -7 6 -15 10 -8 3
-15 1 -15 -4z"/>
<path d="M7068 6823 c6 -2 18 -2 25 0 6 3 1 5 -13 5 -14 0 -19 -2 -12 -5z"/>
<path d="M7128 6803 c7 -3 16 -2 19 1 4 3 -2 6 -13 5 -11 0 -14 -3 -6 -6z"/>
<path d="M6890 6706 c0 -13 43 -56 58 -56 6 0 12 -3 12 -7 0 -5 14 -16 31 -26
27 -15 31 -15 25 -1 -5 13 0 15 27 10 17 -3 25 -3 17 1 -8 3 -17 9 -20 13 -3
4 -16 10 -30 14 -14 3 -19 3 -12 0 17 -8 15 -24 -3 -24 -8 0 -15 3 -15 8 0 4
-17 18 -38 32 -20 14 -40 29 -44 35 -4 5 -8 6 -8 1z"/>
<path d="M6777 6645 c3 -8 9 -12 14 -9 12 7 11 11 -5 17 -10 4 -13 1 -9 -8z"/>
<path d="M7061 6584 c0 -11 3 -14 6 -6 3 7 2 16 -1 19 -3 4 -6 -2 -5 -13z"/>
<path d="M7225 6479 c26 -10 63 -11 68 -1 3 4 -16 7 -41 8 -32 1 -41 -1 -27
-7z"/>
<path d="M4778 6713 c7 -3 16 -2 19 1 4 3 -2 6 -13 5 -11 0 -14 -3 -6 -6z"/>
<path d="M4952 6605 c-33 -18 -49 -35 -34 -35 7 0 12 4 12 9 0 5 11 12 25 15
14 4 25 11 25 16 0 6 -1 10 -2 9 -2 -1 -14 -7 -26 -14z"/>
<path d="M7206 6280 c9 -16 21 -30 27 -30 9 0 9 2 1 8 -6 4 -14 17 -18 30 -4
12 -11 22 -16 22 -5 0 -2 -13 6 -30z"/>
<path d="M7027 6153 c-5 -8 9 -53 16 -53 2 0 2 14 -1 30 -4 31 -8 36 -15 23z"/>
<path d="M5680 6578 c0 -4 4 -8 9 -8 6 0 12 4 15 8 3 5 -1 9 -9 9 -8 0 -15 -4
-15 -9z"/>
<path d="M5316 6528 c5 -8 2 -9 -9 -5 -9 3 -19 2 -22 -3 -3 -4 7 -6 22 -3 16
2 51 8 78 12 l50 8 -63 2 c-46 1 -61 -2 -56 -11z"/>
<path d="M5783 6507 c-23 -17 -44 -38 -47 -44 -8 -19 -2 -16 31 15 17 15 41
35 54 45 13 9 19 17 14 17 -6 0 -29 -15 -52 -33z"/>
<path d="M5906 6494 c-10 -25 1 -29 14 -5 6 12 7 21 1 21 -5 0 -12 -7 -15 -16z"/>
<path d="M5940 6484 c0 -8 5 -12 10 -9 6 3 10 10 10 16 0 5 -4 9 -10 9 -5 0
-10 -7 -10 -16z"/>
<path d="M5880 6445 c0 -8 2 -15 4 -15 2 0 6 7 10 15 3 8 1 15 -4 15 -6 0 -10
-7 -10 -15z"/>
<path d="M5932 6440 c0 -14 2 -19 5 -12 2 6 2 18 0 25 -3 6 -5 1 -5 -13z"/>
<path d="M6435 6441 c46 -25 51 -26 32 -6 -8 7 -28 17 -43 21 -24 5 -23 3 11
-15z"/>
<path d="M6400 6420 c19 -16 43 -36 53 -44 9 -9 22 -16 27 -16 6 0 10 -4 10
-10 0 -5 5 -10 11 -10 6 0 16 -6 23 -12 38 -38 150 -134 164 -141 10 -5 -8 15
-39 45 -95 91 -138 128 -149 128 -6 0 -13 7 -16 15 -3 8 -15 17 -27 21 -11 3
-32 17 -46 30 -14 13 -30 24 -36 24 -5 0 6 -13 25 -30z"/>
<path d="M6081 6405 c-1 -24 31 -105 42 -105 5 0 6 3 4 8 -12 20 -36 79 -40
97 -5 20 -5 20 -6 0z"/>
<path d="M6280 5916 c0 -9 7 -19 15 -23 25 -9 27 2 5 22 -18 17 -20 17 -20 1z"/>
<path d="M6500 5900 c20 -13 33 -13 25 0 -3 6 -14 10 -23 10 -15 0 -15 -2 -2
-10z"/>
<path d="M5353 6325 c0 -22 2 -30 4 -17 2 12 2 30 0 40 -3 9 -5 -1 -4 -23z"/>
<path d="M5548 6284 c-20 -29 -33 -56 -27 -59 5 -4 9 0 9 7 0 7 12 24 25 37
14 12 23 27 20 31 -3 5 0 10 6 12 7 2 10 9 8 15 -2 6 -21 -13 -41 -43z"/>
<path d="M5563 6201 c-30 -25 -29 -32 2 -18 14 7 25 18 25 25 0 15 0 15 -27
-7z"/>
<path d="M3905 6977 c-26 -14 -47 -36 -60 -64 -14 -30 -28 -44 -48 -48 -16 -4
-31 -14 -35 -23 -3 -10 -12 -23 -19 -30 -7 -7 -13 -20 -13 -28 0 -8 -4 -14
-10 -14 -5 0 -13 -13 -17 -30 l-8 -30 -37 33 c-20 17 -47 41 -60 52 -31 26
-110 65 -131 65 -9 0 -19 4 -22 10 -3 5 -48 9 -100 9 -52 0 -99 3 -105 6 -17
11 -90 -5 -90 -20 0 -7 -4 -15 -10 -17 -10 -3 -25 -65 -40 -168 -9 -64 -33
-128 -54 -142 -15 -10 -32 7 -73 76 -61 101 -114 145 -227 190 -41 17 -146 22
-146 7 0 -4 -19 -11 -41 -14 -23 -3 -45 -10 -48 -15 -3 -6 -20 -14 -36 -18
-17 -4 -34 -10 -40 -14 -5 -4 -23 -10 -38 -14 -15 -4 -40 -18 -55 -31 -27 -24
-27 -25 -25 -147 1 -75 6 -124 12 -126 6 -2 11 -8 11 -14 0 -6 13 -27 29 -47
16 -21 33 -49 36 -64 4 -15 11 -27 16 -27 5 0 9 -6 9 -14 0 -8 6 -17 13 -20 6
-3 -16 -4 -51 -2 -34 2 -68 8 -75 14 -7 5 -39 17 -72 26 -33 10 -80 24 -105
32 -107 34 -212 4 -240 -70 -7 -21 -5 -30 18 -55 14 -17 34 -31 42 -31 19 0
48 -30 78 -80 l21 -35 -121 -1 c-144 -2 -153 -7 -145 -89 7 -69 28 -104 108
-186 38 -39 69 -74 69 -78 0 -11 52 -65 80 -83 14 -8 40 -19 58 -22 22 -5 32
-13 32 -27 0 -25 -21 -24 -53 1 -14 11 -30 20 -36 20 -6 0 -11 3 -11 8 0 4
-18 18 -40 32 -22 13 -40 28 -40 32 0 4 -6 8 -13 8 -7 0 -43 20 -80 45 -37 25
-72 45 -77 45 -4 0 -15 6 -22 13 -7 6 -31 21 -53 32 -22 11 -56 29 -76 42 -20
12 -40 19 -43 16 -3 -4 -6 -2 -6 3 0 5 -20 18 -45 29 -25 11 -45 23 -45 27 0
3 -14 9 -31 13 -17 4 -42 13 -57 21 -15 8 -35 14 -44 14 -10 0 -18 4 -18 9 0
5 -14 13 -32 16 -18 4 -39 11 -48 15 -38 20 -153 51 -173 47 -16 -3 -13 -5 10
-6 17 0 34 -5 37 -10 4 -5 24 -12 46 -16 22 -4 42 -11 46 -16 3 -5 13 -9 22
-9 9 -1 35 -9 57 -20 22 -11 48 -19 57 -20 9 0 19 -4 23 -9 3 -5 19 -12 35
-16 17 -4 30 -10 30 -15 0 -4 15 -11 34 -14 19 -4 36 -10 38 -14 2 -4 26 -18
53 -32 28 -14 52 -27 55 -30 3 -3 34 -20 70 -39 36 -18 79 -43 95 -56 17 -12
40 -25 53 -29 12 -4 22 -12 22 -17 0 -5 6 -9 13 -9 8 0 25 -9 38 -20 42 -34
71 -54 109 -72 14 -7 29 -18 33 -25 4 -7 13 -13 20 -13 12 0 26 -17 57 -72 8
-15 34 -40 56 -57 25 -17 44 -41 48 -58 10 -36 53 -93 72 -93 7 0 14 -6 14
-14 0 -8 5 -16 12 -18 7 -3 15 -29 18 -59 l5 -54 34 2 c18 1 37 6 40 11 3 6
20 13 36 17 22 5 16 -1 -22 -21 -61 -32 -123 -87 -123 -109 0 -8 -4 -15 -10
-15 -5 0 -10 -8 -10 -19 0 -10 -10 -30 -21 -45 -17 -22 -20 -36 -16 -69 3 -23
11 -43 16 -45 6 -2 11 -10 11 -17 0 -18 78 -84 109 -92 14 -3 36 -12 50 -19
17 -9 61 -14 122 -14 53 0 111 -5 128 -11 25 -9 43 -9 74 1 94 28 165 72 180
113 3 9 10 17 14 17 11 0 113 -136 113 -150 0 -6 4 -18 9 -28 4 -9 16 -33 25
-52 10 -21 35 -46 61 -63 31 -18 45 -33 45 -48 0 -20 35 -88 51 -99 11 -8 24
-62 20 -85 -2 -11 -9 -32 -17 -46 -15 -30 -3 -49 31 -49 45 0 145 73 145 106
0 8 4 14 9 14 5 0 12 15 16 33 15 73 36 104 86 128 27 12 51 30 54 40 8 25 53
55 95 63 53 10 88 28 100 52 8 14 21 21 41 21 16 0 29 -4 29 -9 0 -4 11 -8 24
-8 17 0 27 -8 34 -27 6 -16 20 -39 32 -53 l21 -25 -12 25 c-7 14 -15 27 -19
30 -4 3 -10 15 -14 27 l-7 23 143 -5 143 -4 -130 9 c-71 5 -139 12 -150 15
-13 3 -34 33 -58 83 -21 42 -35 64 -32 47 4 -16 10 -32 15 -35 5 -3 12 -18 15
-33 4 -15 11 -27 16 -27 5 0 9 -7 9 -16 0 -12 -6 -15 -22 -10 -13 3 -31 6 -40
6 -15 0 -18 9 -18 56 0 49 -17 105 -49 164 -5 9 -12 35 -16 58 -4 23 -11 42
-16 42 -5 0 -9 14 -9 30 0 26 4 30 28 30 21 0 33 -10 52 -40 22 -36 83 -80
112 -80 6 0 21 -11 34 -25 12 -13 35 -27 51 -31 15 -4 34 -11 41 -17 23 -18
154 -13 184 7 29 19 90 16 136 -6 15 -8 29 -8 45 -1 56 26 84 36 112 39 33 4
75 45 75 74 0 10 4 21 9 25 5 3 12 18 16 34 11 50 42 68 121 73 44 2 77 9 87
18 37 34 46 39 78 42 31 3 34 6 37 39 2 26 -6 53 -26 91 -16 30 -33 73 -37 97
-4 23 -13 55 -21 69 -8 15 -14 33 -14 40 0 6 -4 12 -10 12 -5 0 -10 6 -10 13
0 7 -21 34 -47 60 l-47 47 29 55 c15 30 43 68 62 85 18 17 33 37 33 44 0 8 5
16 12 18 8 3 13 38 16 101 4 85 2 101 -18 139 -12 24 -25 45 -29 48 -11 8 -41
93 -41 117 0 53 -59 39 -263 -63 -27 -13 -50 -24 -50 -24 -1 0 -2 46 -2 103 0
75 -5 117 -20 160 -10 31 -23 57 -27 57 -4 0 -8 5 -8 11 0 13 -68 128 -87 147
-7 7 -13 20 -13 28 0 8 -4 14 -9 14 -5 0 -11 19 -15 42 -4 23 -10 45 -14 48
-4 3 -16 22 -26 43 -11 22 -29 40 -43 43 -13 4 -23 10 -23 15 0 5 -5 9 -11 9
-6 0 -42 20 -79 45 -37 25 -77 45 -88 45 -12 0 -25 6 -29 13 -10 17 -54 47
-68 47 -5 0 -28 -10 -50 -23z m92 -37 c3 -11 9 -20 13 -20 5 0 10 -10 12 -22
2 -12 10 -24 18 -26 13 -5 13 -3 1 11 -12 15 -11 17 8 17 15 0 21 -7 22 -22
l1 -23 7 23 6 24 45 -34 c25 -19 64 -43 87 -54 45 -20 75 -67 99 -154 3 -14
26 -55 50 -91 24 -37 44 -71 44 -77 0 -6 3 -12 8 -14 11 -5 42 -70 54 -114 15
-53 22 -204 10 -204 -5 0 -12 -9 -15 -20 -4 -15 -14 -20 -39 -20 l-33 0 3 139
3 140 -44 45 c-24 24 -47 52 -51 61 -3 9 -25 46 -49 81 l-42 64 -60 0 c-33 0
-74 -4 -90 -8 -33 -10 -58 -5 -49 9 3 5 0 9 -5 9 -7 0 -11 36 -11 99 0 55 -3
102 -7 104 -5 3 -7 -48 -5 -113 l4 -117 -51 5 c-74 7 -151 -29 -151 -71 0 -16
-2 -17 -15 -3 -8 8 -15 23 -15 33 0 10 -9 32 -20 48 -11 17 -20 39 -20 50 0
22 34 90 56 112 8 8 14 19 14 24 0 5 7 9 15 9 8 0 22 -18 31 -40 27 -68 47
-43 22 27 -22 61 35 132 105 133 21 0 30 -6 34 -20z m-718 -96 c17 -8 36 -24
41 -35 6 -10 16 -19 23 -19 8 0 9 3 1 8 -6 4 -14 15 -17 26 -7 17 -2 18 79 14
47 -2 89 -9 92 -15 4 -6 18 -14 31 -18 13 -4 34 -18 46 -31 12 -13 25 -24 28
-24 4 0 26 -19 51 -42 50 -48 86 -110 86 -148 0 -14 5 -31 12 -38 16 -16 8
-21 -24 -15 -17 3 -30 14 -33 27 -9 32 -19 56 -46 111 -35 70 -123 125 -204
128 -53 2 -59 0 -84 -30 -24 -29 -51 -95 -51 -125 0 -6 -8 -30 -19 -52 -66
-144 -71 -157 -71 -206 0 -28 5 -60 11 -71 5 -11 9 -34 7 -52 -3 -32 -3 -32
-47 36 -24 37 -45 67 -46 67 -2 0 -1 -9 2 -20 3 -11 10 -20 16 -20 6 0 7 -3 4
-6 -3 -4 7 -25 23 -48 27 -37 29 -47 26 -103 -2 -34 1 -64 6 -65 13 -5 -13
-98 -28 -98 -7 0 -16 9 -19 20 -3 11 -11 20 -16 20 -5 0 -9 6 -9 14 0 8 -6 21
-12 28 -7 8 -21 29 -32 48 -10 19 -32 60 -49 90 -28 50 -31 63 -31 145 -1 84
1 94 34 155 19 36 38 67 42 71 10 7 27 85 39 176 5 43 16 81 26 93 21 24 68
26 112 4z m-491 -86 c67 -33 135 -103 162 -166 5 -13 23 -37 40 -55 25 -26 29
-38 24 -62 -12 -60 -20 -56 -124 65 -16 19 -30 41 -30 48 0 6 -4 12 -10 12 -5
0 -12 11 -16 25 -3 14 -10 25 -14 25 -4 0 -11 11 -14 25 -4 14 -10 23 -15 20
-10 -5 12 -54 47 -102 12 -17 22 -34 22 -38 0 -3 11 -16 25 -29 14 -13 25 -28
25 -34 0 -6 14 -22 31 -37 34 -28 32 -45 -4 -27 -26 13 -163 45 -174 40 -5 -2
-7 -7 -5 -11 1 -5 -7 -6 -18 -2 -11 4 -20 2 -20 -4 0 -6 -7 -11 -15 -11 -8 0
-15 -4 -15 -10 0 -5 -4 -10 -10 -10 -13 0 -50 -32 -50 -43 0 -5 -7 -15 -15
-23 -8 -9 -15 -24 -15 -35 0 -10 -4 -19 -10 -19 -5 0 -10 -5 -10 -11 0 -7 -9
-27 -21 -46 -21 -34 -21 -34 -48 -17 -36 23 -53 43 -76 89 -10 22 -32 56 -47
76 -15 20 -28 42 -28 48 0 6 -5 11 -11 11 -11 0 -10 18 7 126 4 26 2 44 -5 48
-35 22 13 80 75 92 19 3 37 10 40 15 15 25 164 -15 164 -44 0 -8 4 -7 12 1 8
8 8 15 -1 26 -15 18 -67 45 -90 47 -31 3 65 16 128 18 48 1 75 -5 109 -21z
m723 -29 c27 -12 49 -25 49 -30 0 -5 6 -9 13 -9 27 0 98 -140 75 -149 -5 -2
-15 2 -21 8 -6 6 -28 11 -49 11 -30 0 -37 4 -36 18 2 26 -13 82 -23 82 -5 0
-4 -12 1 -26 17 -43 12 -92 -9 -99 -35 -11 -120 -105 -127 -141 -3 -19 -10
-34 -15 -34 -5 0 -9 -17 -9 -39 0 -28 7 -45 25 -63 l25 -26 -36 -28 c-19 -16
-45 -45 -56 -66 -24 -43 -54 -55 -68 -28 -13 25 -13 47 1 52 16 5 14 137 -2
182 -10 28 -10 39 -1 48 7 7 12 20 12 30 0 24 53 123 58 108 2 -6 -2 -25 -8
-41 -9 -21 -10 -33 -2 -41 12 -12 29 73 17 91 -7 12 18 102 44 163 23 53 62
61 142 27z m693 -122 c42 -42 76 -115 78 -165 1 -36 2 -40 5 -14 2 17 7 32 10
32 3 0 22 -17 42 -37 l36 -37 0 -121 c0 -101 -3 -127 -19 -157 -17 -31 -21
-34 -33 -22 -8 8 -21 14 -28 14 -14 0 -65 -49 -65 -62 0 -10 -61 -46 -93 -53
l-27 -7 2 58 c1 33 6 62 12 66 5 3 10 33 11 66 1 46 -2 59 -12 55 -18 -7 -16
12 3 42 9 13 14 30 11 37 -4 8 -6 6 -6 -4 -1 -10 -5 -18 -11 -18 -5 0 -10 -7
-10 -16 0 -14 -3 -14 -15 -4 -8 7 -15 24 -15 37 0 14 -7 40 -16 59 -15 31 -29
39 -61 35 -9 -1 -13 12 -13 40 0 23 -3 39 -7 35 -8 -7 -9 -12 -11 -53 -2 -19
-8 -23 -37 -23 -30 0 -35 3 -35 24 0 31 -43 66 -80 66 -40 0 -42 20 -10 72 21
34 36 47 60 52 45 9 62 8 55 -3 -3 -5 -1 -12 5 -16 5 -3 10 -2 10 3 0 5 37 13
81 17 45 3 91 10 103 15 35 15 56 11 80 -13z m-525 -104 c7 -11 84 -39 129
-47 55 -10 83 -58 40 -71 -12 -4 -33 -18 -47 -31 -14 -13 -29 -24 -33 -24 -5
0 -8 -7 -8 -15 0 -8 -4 -15 -8 -15 -5 0 -17 -19 -28 -42 l-19 -43 -6 50 c-3
28 -7 38 -7 23 -2 -35 -22 -37 -22 -3 0 28 -20 35 -20 8 -1 -27 -40 23 -40 51
-1 28 -33 66 -58 66 -21 0 -79 -26 -87 -41 -4 -5 -17 -9 -31 -9 -40 0 -31 42
19 92 l42 43 6 -40 c6 -37 10 -31 13 20 2 42 15 48 88 43 39 -3 73 -10 77 -15z
m-777 -90 c7 -6 26 -13 43 -17 30 -8 45 -21 45 -43 0 -17 -64 -17 -90 -1 -10
7 -22 9 -26 5 -12 -12 3 -19 58 -26 53 -6 53 -6 56 -43 2 -21 7 -38 13 -38 5
0 9 -4 9 -9 0 -4 -25 -9 -57 -10 -76 -1 -82 -11 -6 -11 65 0 72 -4 102 -63 17
-33 17 -33 -8 -45 -14 -7 -31 -12 -38 -12 -15 0 -17 -42 -4 -68 5 -9 18 -37
30 -62 11 -25 33 -58 49 -75 36 -37 80 -75 88 -75 3 0 30 -11 60 -25 30 -14
58 -25 62 -25 5 0 23 -11 40 -24 l33 -24 -43 -22 c-24 -12 -45 -25 -48 -29
-20 -26 -123 -61 -180 -61 -70 0 -183 45 -213 86 -21 28 -32 107 -23 158 l7
36 57 2 57 2 -57 3 c-42 3 -58 8 -58 18 0 8 4 15 9 15 5 0 12 16 16 36 7 41
-10 68 -52 79 -13 3 -34 14 -45 25 -30 28 -149 63 -184 54 -16 -4 -39 -18 -52
-31 l-22 -25 6 44 c4 24 11 45 16 46 4 2 8 8 8 14 0 13 42 101 52 108 3 3 10
18 13 33 4 15 10 27 14 27 4 0 13 11 19 25 19 41 86 66 164 62 37 -3 73 -9 80
-14z m737 -161 c35 -26 40 -42 12 -42 -10 0 -24 -7 -31 -15 -16 -19 -100 -17
-93 2 3 7 9 13 13 13 10 0 7 56 -4 67 -4 4 -7 -5 -6 -22 3 -46 1 -52 -15 -31
-12 16 -15 17 -15 4 0 -9 6 -18 13 -21 9 -4 9 -7 0 -18 -10 -10 -14 -7 -19 19
-4 18 -9 32 -13 33 -52 6 -103 44 -99 73 2 17 9 20 36 18 20 -2 44 4 60 15 15
10 38 23 52 29 24 11 26 9 51 -45 15 -31 41 -66 58 -79z m393 97 c11 -6 18
-21 18 -38 0 -15 13 -55 30 -87 35 -70 35 -70 12 -115 -17 -33 -27 -48 -60
-84 -7 -8 -10 -15 -6 -15 5 0 18 12 31 28 l22 27 1 -77 c0 -42 -4 -80 -10 -83
-5 -3 -10 -15 -10 -27 0 -51 -71 -128 -117 -128 -14 0 -14 2 0 18 10 10 17 23
17 29 0 6 5 13 10 15 17 5 31 130 21 182 -5 25 -20 61 -35 80 -14 19 -26 40
-26 46 0 18 -50 59 -66 53 -8 -3 -14 0 -14 6 0 6 -8 11 -17 10 -11 0 -13 -3
-5 -6 6 -2 9 -9 6 -15 -3 -5 -15 4 -25 21 -11 19 -27 31 -40 31 -33 0 -16 47
36 96 l44 42 82 0 c45 1 91 -3 101 -9z m-1902 -64 c98 -25 158 -43 171 -51 14
-9 81 -22 144 -30 80 -10 86 -13 75 -34 -5 -10 -10 -32 -10 -47 0 -16 -5 -34
-11 -40 -9 -9 -4 -23 20 -54 17 -24 31 -46 31 -50 0 -12 -108 -17 -151 -7 -24
6 -73 10 -109 9 -78 -2 -141 22 -197 76 l-38 36 25 8 25 7 -27 1 c-50 2 -38
19 18 23 90 8 92 28 3 28 -76 0 -119 13 -161 49 -22 19 -22 23 0 47 39 44 98
53 192 29z m1342 -172 c2 -95 2 -99 5 -30 2 42 8 77 13 77 6 0 10 -5 10 -12 0
-9 3 -9 12 0 14 14 78 16 78 2 0 -5 6 -10 13 -10 17 0 35 -58 40 -127 3 -35
13 -66 31 -93 26 -39 36 -110 16 -110 -5 0 -10 -6 -10 -13 0 -16 -57 -68 -91
-82 -13 -6 -33 -9 -44 -7 -22 3 -75 78 -75 106 0 9 -4 16 -10 16 -5 0 -12 23
-16 50 -7 51 -17 59 -20 15 0 -14 3 -25 9 -25 6 0 7 -17 3 -42 -5 -31 -3 -39
4 -28 8 11 9 8 4 -12 -3 -16 -2 -28 3 -28 10 0 37 -50 30 -56 -13 -14 -112 42
-165 93 -7 7 -22 13 -32 13 -10 0 -21 4 -24 9 -3 5 -21 12 -40 15 -21 4 -52
23 -79 49 -24 23 -39 39 -33 35 19 -15 73 -8 99 12 16 13 28 35 32 60 5 28 16
47 38 65 18 14 38 30 45 36 9 7 12 4 13 -11 2 -29 3 -33 16 -55 14 -23 15 -15
4 42 -6 29 -5 40 2 36 6 -4 8 0 4 11 -10 24 21 73 50 81 13 3 23 10 23 15 0 6
9 10 20 10 19 0 20 -7 22 -107z m1338 69 c0 -26 13 -59 41 -107 39 -66 42 -74
41 -147 0 -69 -3 -81 -34 -127 -18 -28 -40 -54 -49 -56 -9 -3 -24 -26 -34 -52
-23 -59 -99 -138 -142 -148 -18 -3 -33 -11 -33 -16 0 -5 -18 -9 -40 -9 -34 0
-42 4 -50 24 -23 63 -178 176 -239 176 -24 0 -29 28 -6 36 8 4 15 12 15 20 0
8 4 14 9 14 5 0 13 9 16 21 4 12 15 29 26 40 16 16 20 17 33 4 19 -19 37 -19
30 0 -4 8 -12 15 -19 15 -14 0 -8 49 9 66 6 6 43 14 82 17 40 4 84 14 100 22
16 8 39 15 52 15 12 0 22 4 22 9 0 5 8 12 18 14 9 2 1 2 -18 0 -19 -3 -40 -9
-46 -14 -6 -5 -32 -12 -58 -15 -25 -4 -46 -11 -46 -15 0 -5 -22 -9 -50 -9 -41
0 -50 3 -50 18 0 9 -7 26 -15 36 -38 50 -8 84 73 84 38 0 75 7 105 21 25 12
51 21 56 21 6 0 11 4 11 9 0 5 16 12 35 15 19 4 35 11 35 16 0 4 14 11 30 15
17 4 30 11 30 16 0 5 14 9 30 9 28 0 30 -2 30 -38z m-1030 8 c4 0 10 -9 13
-20 4 -18 0 -20 -34 -20 -26 0 -47 -7 -61 -20 -26 -24 -42 -26 -34 -5 3 8 1
15 -5 15 -6 0 -17 7 -25 15 -13 12 -10 15 23 24 50 14 85 19 101 15 8 -2 17
-4 22 -4z m103 -71 c3 -12 10 -18 16 -14 6 3 11 0 11 -9 0 -8 12 -29 28 -47
25 -30 27 -40 27 -116 0 -51 -4 -87 -11 -91 -6 -4 -14 -17 -18 -29 -7 -23 -84
-83 -106 -83 -6 0 -8 -5 -5 -11 12 -18 -38 -77 -83 -100 -57 -28 -121 -23
-181 16 l-44 27 24 13 c13 7 27 11 31 9 20 -13 148 88 148 117 0 5 15 10 33
10 30 2 30 2 5 6 -22 3 -28 10 -28 29 0 28 -34 109 -50 119 -5 3 -10 27 -10
53 0 41 4 50 36 79 28 25 40 29 53 22 11 -7 26 -6 51 5 48 21 67 20 73 -5z
m-1209 -28 c3 -5 22 -12 41 -15 19 -4 35 -11 35 -16 0 -6 7 -10 16 -10 11 0
14 -7 11 -27 -2 -16 -2 -22 0 -15 6 15 55 16 71 0 14 -14 16 -48 2 -48 -5 0
-12 -22 -16 -50 -4 -27 -9 -50 -13 -50 -3 0 -18 6 -32 14 -14 7 -43 16 -64 20
-39 8 -109 47 -135 75 -8 10 -23 31 -32 49 -17 31 -17 32 15 57 32 25 90 34
101 16z m426 -26 c0 -8 5 -15 10 -15 6 0 10 -6 10 -13 0 -7 15 -29 33 -49 31
-34 32 -37 13 -40 -60 -11 -125 37 -140 105 -6 26 -5 27 34 27 29 0 40 -4 40
-15z m1229 -30 c32 -47 26 -119 -13 -161 -14 -16 -29 -37 -32 -46 -3 -12 -16
-18 -35 -18 -17 0 -28 -4 -24 -10 3 -5 12 -7 20 -3 8 3 15 1 15 -5 0 -12 -45
-30 -90 -35 l-35 -4 38 -1 c20 -1 37 -7 37 -13 0 -18 -107 -113 -150 -132 -14
-6 -27 -14 -30 -17 -5 -5 -46 -25 -115 -57 -30 -13 -65 -18 -135 -18 -85 0
-97 2 -117 23 -34 33 -28 42 23 42 43 0 113 30 122 52 6 13 30 9 35 -4 2 -7 4
4 4 25 -1 22 5 42 12 47 26 15 93 21 107 9 8 -7 18 -9 21 -5 4 4 2 11 -5 15
-9 5 -2 13 21 25 31 17 77 74 77 96 0 6 4 18 9 28 6 9 13 34 16 55 5 31 10 37
30 37 41 0 72 17 117 65 23 25 45 45 48 45 3 0 16 -16 29 -35z m-2243 -32 c27
-9 59 -23 71 -30 11 -8 65 -20 120 -27 71 -9 91 -14 72 -19 -38 -10 -113 -84
-139 -137 -12 -25 -26 -53 -31 -62 -5 -10 -9 -23 -9 -30 0 -7 -5 -30 -11 -50
-8 -32 -14 -38 -36 -38 -43 0 -139 80 -128 108 3 9 3 13 -1 10 -8 -8 -34 16
-34 31 0 6 -5 11 -11 11 -6 0 -29 17 -50 39 -22 21 -39 44 -39 50 0 6 -3 11
-8 11 -9 0 -32 72 -32 103 0 13 5 28 12 35 19 19 194 15 254 -5z m532 -93 c23
-16 47 -30 54 -31 7 0 4 -4 -7 -9 -14 -7 -9 -8 18 -4 24 4 48 1 63 -7 l24 -13
-37 -17 c-21 -10 -31 -18 -22 -19 9 0 30 7 45 15 16 8 37 15 47 15 16 0 17 -2
3 -15 -8 -8 -22 -15 -31 -15 -32 0 -108 -64 -151 -125 -55 -81 -65 -146 -49
-313 10 -101 45 -161 124 -214 l26 -18 -47 0 c-27 0 -48 4 -48 9 0 4 -27 14
-60 20 -61 12 -140 1 -140 -19 0 -6 -6 -10 -14 -10 -18 0 -29 82 -15 117 6 16
10 30 9 32 -1 2 2 7 7 10 13 9 43 54 43 65 0 5 -9 -1 -20 -14 -11 -13 -20 -27
-20 -32 0 -5 -11 -13 -25 -18 -14 -5 -25 -15 -25 -21 0 -8 6 -7 18 2 15 13 16
12 3 -3 -7 -10 -10 -18 -6 -18 5 0 6 -3 2 -6 -6 -7 -22 5 -73 54 -48 47 -46
96 7 195 7 13 5 17 -7 17 -9 0 -21 -13 -27 -30 -6 -16 -15 -30 -19 -30 -4 0
-8 -9 -8 -20 0 -25 -5 -25 -44 0 -41 25 -60 60 -53 97 21 99 33 149 38 158 4
6 10 24 13 42 4 17 14 37 22 44 8 6 14 16 14 20 0 15 62 79 77 79 7 0 13 4 13
8 0 8 47 31 90 43 14 3 52 7 86 8 53 1 66 -3 102 -29z m212 -165 c7 -53 35
-88 89 -116 31 -15 39 -24 30 -30 -7 -4 -10 -11 -6 -15 3 -4 13 -1 21 5 9 7
21 9 28 5 7 -5 29 -9 48 -10 74 -3 72 -2 60 -23 -5 -11 -10 -28 -10 -38 1 -10
10 1 21 25 19 40 31 47 75 41 4 0 10 3 13 8 3 4 27 18 54 30 45 22 47 22 47 3
0 -10 4 -21 9 -24 4 -3 11 -24 15 -46 3 -22 10 -40 15 -40 5 0 12 -8 14 -17 2
-10 3 -4 0 12 -2 17 -8 32 -13 33 -6 2 -10 17 -10 33 0 16 -4 29 -8 29 -4 0
-8 12 -7 27 0 21 8 32 34 46 32 18 37 18 68 3 19 -9 38 -16 43 -16 6 0 23 -11
38 -25 16 -14 36 -31 45 -38 13 -9 17 -35 19 -123 3 -98 1 -114 -16 -133 -18
-20 -20 -20 -32 -3 -7 9 -14 27 -14 40 0 12 -4 22 -9 22 -5 0 -3 -25 6 -56 18
-72 10 -111 -35 -151 -31 -27 -46 -33 -109 -38 -102 -10 -172 7 -221 53 -7 6
-19 12 -27 12 -7 0 -15 5 -17 10 -2 6 -21 13 -42 17 -35 5 -41 3 -67 -27 -16
-18 -29 -39 -29 -46 0 -8 -3 -14 -8 -14 -4 0 -18 -20 -32 -44 -13 -25 -34 -49
-47 -55 -19 -9 -26 -6 -45 15 -54 59 -102 104 -114 104 -15 0 -71 67 -82 99
-15 41 -16 98 -2 106 6 3 10 14 10 23 0 10 10 28 23 42 13 14 26 34 30 45 4
13 -4 7 -24 -15 -16 -19 -33 -47 -36 -62 -15 -74 -40 25 -29 113 7 55 16 73
60 134 38 51 53 65 96 93 51 32 74 26 80 -23z m1488 -73 c115 -47 197 -153
177 -230 -6 -24 -60 -110 -77 -123 -8 -5 -22 -63 -40 -163 -5 -33 -16 -66 -24
-73 -8 -8 -14 -18 -14 -22 0 -4 -19 -13 -42 -20 -24 -7 -51 -15 -62 -18 -12
-3 -16 -1 -12 6 6 9 -19 54 -50 87 -10 11 -43 78 -79 159 -48 107 -45 102 -45
75 0 -15 4 -30 8 -35 4 -6 19 -37 32 -70 13 -33 38 -84 56 -114 18 -29 30 -60
27 -68 -3 -7 4 -22 16 -32 l20 -18 -24 -21 c-21 -18 -38 -22 -95 -22 -40 0
-70 4 -70 10 0 6 -7 10 -15 10 -31 0 -150 134 -187 210 -7 14 -15 27 -19 30
-3 3 -9 12 -13 20 -3 8 -3 -3 0 -25 5 -38 34 -95 61 -123 15 -16 17 -26 3 -17
-5 3 -7 0 -4 -9 3 -8 13 -17 22 -20 10 -3 -3 -3 -28 0 -90 10 -116 13 -189 19
-77 7 -145 38 -158 73 -4 9 -11 20 -17 24 -7 5 -4 8 7 8 9 0 17 7 17 15 0 8 4
15 10 15 5 0 12 12 16 28 8 37 25 72 49 103 20 24 20 33 13 120 -10 109 -5
134 19 100 8 -13 16 -34 16 -47 0 -13 3 -24 8 -24 5 0 9 8 9 18 0 14 2 15 9 2
6 -8 7 -18 4 -23 -3 -5 4 -6 16 -2 13 4 28 1 36 -5 18 -15 86 -15 112 -1 10 5
39 13 66 16 26 3 47 10 47 16 0 5 6 9 13 9 6 0 25 7 41 15 26 14 31 14 48 -1
10 -10 18 -24 18 -33 0 -14 2 -14 10 -1 6 10 4 20 -6 31 -13 15 -21 39 -8 26
3 -3 16 4 29 16 12 12 37 33 55 47 18 14 47 37 64 52 17 15 36 28 42 28 7 0
43 -13 82 -28z m480 -133 c42 -46 69 -97 73 -135 2 -16 9 -38 16 -49 7 -11 13
-30 13 -42 0 -13 4 -23 9 -23 5 0 12 -13 16 -30 4 -16 10 -30 15 -30 10 0 18
-31 13 -47 -3 -7 -15 -13 -27 -13 -13 0 -42 -14 -66 -31 -54 -39 -126 -45
-185 -14 -43 22 -75 50 -75 65 0 6 -7 10 -15 10 -20 0 -19 -8 8 -47 12 -18 32
-36 44 -39 27 -7 36 -29 19 -47 -18 -18 -42 -66 -50 -102 -11 -46 -34 -65 -77
-65 -21 0 -39 -5 -42 -12 -2 -9 -28 -13 -85 -12 -76 1 -84 3 -108 29 -14 15
-28 24 -32 20 -4 -4 -1 -10 6 -12 21 -8 13 -32 -13 -39 -14 -3 -25 -10 -25
-15 0 -5 -27 -9 -60 -9 -33 0 -60 4 -60 9 0 4 -18 11 -40 14 -24 3 -48 15 -63
31 -13 14 -28 26 -32 26 -24 0 -93 45 -107 71 -15 26 -8 44 7 19 3 -5 15 -10
25 -10 10 0 41 -15 67 -32 45 -31 54 -33 131 -33 45 0 86 5 90 10 7 11 49 32
122 62 56 22 78 47 86 97 l7 39 19 -23 c23 -29 36 -19 14 12 -18 25 -22 93 -6
103 6 3 10 15 10 26 0 10 5 19 10 19 6 0 10 -7 10 -15 0 -8 4 -15 9 -15 5 0
12 -12 15 -26 7 -28 9 -31 55 -84 23 -26 30 -30 31 -17 0 9 -6 17 -13 17 -13
0 -60 71 -72 111 -4 13 -15 29 -23 35 -13 9 -10 17 19 57 30 40 39 46 71 47
21 0 62 -11 93 -24 30 -14 55 -21 55 -15 0 5 -8 12 -17 15 -10 3 -26 10 -37
16 -10 5 -43 12 -73 15 -41 5 -53 9 -49 20 4 8 6 25 6 38 0 19 7 24 45 29 24
4 47 11 50 15 2 5 17 12 31 15 14 4 40 20 57 36 35 32 38 31 85 -21z m-1716
-326 c18 -10 35 -21 36 -25 2 -5 9 -8 17 -8 7 0 18 -7 25 -15 7 -8 28 -17 47
-21 31 -6 33 -8 19 -22 -9 -9 -39 -17 -73 -20 -49 -3 -61 -1 -77 17 -11 12
-23 21 -28 21 -13 0 -9 -22 8 -41 16 -17 15 -19 -12 -30 -59 -25 -117 -36
-143 -29 -20 6 -22 9 -11 14 9 4 27 27 40 51 14 25 28 45 32 45 5 0 8 5 8 11
0 19 44 68 62 68 9 1 31 -7 50 -16z m389 -78 c1 -8 2 -20 3 -27 0 -7 16 -16
34 -22 17 -5 32 -13 32 -17 0 -5 9 -9 19 -9 11 0 23 -4 26 -10 3 -5 17 -10 29
-10 19 0 25 -7 30 -35 4 -19 11 -35 15 -35 5 0 12 -20 15 -45 4 -24 11 -47 17
-50 5 -4 9 -24 9 -45 0 -21 5 -42 10 -45 6 -4 8 -21 4 -40 -3 -19 -1 -35 5
-39 13 -8 16 66 4 78 -5 4 -8 11 -9 14 -3 45 -18 129 -24 141 -24 43 -42 92
-37 98 3 3 22 2 40 -1 36 -7 47 -24 47 -73 0 -13 4 -23 9 -23 5 0 12 -20 15
-45 4 -25 10 -45 14 -45 14 0 42 -99 42 -151 0 -53 -19 -89 -46 -89 -7 0 -14
-5 -16 -11 -2 -7 -29 -12 -65 -13 -44 -1 -59 -4 -56 -13 3 -7 0 -13 -6 -13 -6
0 -11 -9 -11 -20 0 -12 -15 -29 -40 -45 -48 -30 -48 -30 -53 -2 -4 19 -4 19
-6 -5 0 -15 -6 -30 -12 -34 -8 -5 -10 3 -7 24 4 26 2 29 -9 20 -7 -6 -11 -19
-8 -29 7 -22 -14 -149 -25 -149 -5 0 -12 -10 -15 -22 -9 -26 -53 -68 -71 -68
-8 0 -14 -4 -14 -10 0 -5 -9 -10 -20 -10 -19 0 -20 2 -5 30 8 16 15 39 15 50
0 19 -25 76 -40 90 -3 3 -14 19 -25 35 -18 27 -20 46 -19 173 1 129 -1 140
-13 112 -7 -18 -13 -41 -13 -51 0 -10 -4 -21 -10 -24 -5 -3 -10 -26 -10 -51 0
-50 -14 -57 -48 -21 -14 15 -25 47 -34 97 -7 41 -14 67 -16 57 -3 -15 -8 -13
-33 15 -16 18 -29 36 -29 40 0 4 -6 13 -14 21 -8 8 -29 36 -45 63 -25 39 -31
59 -31 104 0 51 3 58 25 68 14 7 34 12 43 12 9 0 26 7 36 15 11 8 31 15 45 15
30 0 102 24 134 44 12 8 33 17 45 21 23 7 23 7 7 -19 -24 -36 -4 -33 23 4 16
22 31 30 52 30 17 0 30 -4 30 -10 0 -5 -5 -10 -11 -10 -6 0 -9 -7 -5 -15 3 -8
1 -15 -4 -15 -6 0 -10 -7 -10 -15 0 -13 -20 -65 -41 -107 -11 -22 -11 -28 0
-28 5 0 12 14 16 31 4 17 13 42 21 57 8 15 14 32 14 37 1 14 37 60 49 61 24 3
25 5 11 14 -13 8 -12 10 3 10 9 0 18 -7 18 -15z m-865 -5 c6 -6 40 -12 76 -14
66 -3 99 -19 90 -44 -2 -6 4 -12 12 -12 9 0 19 -7 22 -15 4 -8 15 -15 25 -15
33 0 24 -18 -46 -94 -11 -12 -49 -44 -85 -71 -83 -64 -81 -61 -110 -86 -29
-24 -13 -16 45 20 53 35 75 53 164 139 41 39 76 72 78 72 3 0 1 -9 -2 -20 -4
-11 -2 -20 4 -20 6 0 11 7 11 15 0 8 5 15 11 15 5 0 8 -4 4 -9 -3 -5 -1 -12 5
-16 5 -3 10 1 10 9 0 9 7 16 15 16 13 0 14 -4 5 -20 -11 -20 -1 -77 22 -126 7
-15 6 -29 -3 -45 -13 -26 -69 -79 -82 -79 -5 0 -24 -7 -42 -16 -26 -12 -50
-14 -102 -10 -37 4 -106 8 -153 9 -120 3 -233 51 -246 105 -4 12 -10 22 -14
22 -4 0 -11 12 -15 27 -5 23 2 34 52 86 32 32 67 63 78 68 16 7 14 8 -9 4 -17
-4 -38 -16 -48 -27 -14 -16 -18 -17 -18 -6 0 23 59 76 126 113 61 34 102 43
120 25z"/>
<path d="M4039 6858 c-6 -22 -6 -44 1 -62 7 -17 9 -13 9 22 1 23 -1 42 -4 42
-3 0 -5 -1 -6 -2z"/>
<path d="M4221 6674 c0 -11 3 -14 6 -6 3 7 2 16 -1 19 -3 4 -6 -2 -5 -13z"/>
<path d="M3120 6592 c0 -7 9 -29 21 -50 19 -34 20 -35 14 -8 -7 32 -35 78 -35
58z"/>
<path d="M3130 6190 c0 -5 5 -10 10 -10 6 0 10 -6 10 -12 1 -20 48 -73 57 -64
4 4 0 13 -10 20 -9 7 -17 18 -17 25 0 6 -4 11 -9 11 -5 0 -13 9 -16 20 -7 21
-25 28 -25 10z"/>
<path d="M2615 6760 c3 -5 12 -10 20 -10 7 0 36 -26 64 -57 28 -31 51 -53 51
-47 0 5 -11 22 -25 37 -14 15 -23 27 -20 27 9 0 -16 23 -47 43 -30 19 -53 23
-43 7z"/>
<path d="M2607 6524 c-8 -8 80 -53 103 -54 8 0 -5 10 -30 22 -25 12 -46 26
-48 30 -4 10 -16 10 -25 2z"/>
<path d="M2711 6525 c-1 -6 8 -18 19 -28 17 -14 20 -14 20 -2 0 8 -6 15 -14
15 -8 0 -17 6 -19 13 -3 6 -6 7 -6 2z"/>
<path d="M2430 6350 c0 -5 7 -10 16 -10 8 0 12 5 9 10 -3 6 -10 10 -16 10 -5
0 -9 -4 -9 -10z"/>
<path d="M2488 6333 c12 -2 32 -2 45 0 12 2 2 4 -23 4 -25 0 -35 -2 -22 -4z"/>
<path d="M3560 6580 c0 -5 5 -10 10 -10 6 0 10 5 10 10 0 6 -4 10 -10 10 -5 0
-10 -4 -10 -10z"/>
<path d="M3321 6414 c0 -11 6 -29 14 -40 13 -17 14 -17 15 -1 0 9 -4 17 -9 17
-5 0 -12 10 -14 23 -4 20 -4 20 -6 1z"/>
<path d="M3918 6537 c-12 -29 -10 -63 3 -50 6 6 9 23 7 39 -2 24 -4 26 -10 11z"/>
<path d="M4265 6380 c3 -5 8 -10 11 -10 2 0 4 5 4 10 0 6 -5 10 -11 10 -5 0
-7 -4 -4 -10z"/>
<path d="M4327 6374 c-4 -4 -19 -30 -32 -58 -29 -58 -45 -84 -62 -104 -7 -7
-13 -17 -13 -20 0 -4 -20 -30 -45 -57 -46 -51 -61 -83 -24 -49 29 26 109 132
109 144 0 6 4 10 9 10 5 0 13 10 17 23 4 12 18 39 31 60 22 35 29 69 10 51z"/>
<path d="M4250 6153 c0 -10 -75 -88 -103 -108 -11 -8 -18 -17 -15 -20 3 -3 31
17 62 46 59 54 85 89 66 89 -5 0 -10 -3 -10 -7z"/>
<path d="M3702 6360 c0 -19 2 -27 5 -17 2 9 2 25 0 35 -3 9 -5 1 -5 -18z"/>
<path d="M2895 5930 c4 -6 11 -8 16 -5 14 9 11 15 -7 15 -8 0 -12 -5 -9 -10z"/>
<path d="M2988 5903 c7 -3 16 -2 19 1 4 3 -2 6 -13 5 -11 0 -14 -3 -6 -6z"/>
<path d="M3195 5770 c-3 -5 3 -10 14 -10 12 0 21 5 21 10 0 6 -6 10 -14 10 -8
0 -18 -4 -21 -10z"/>
<path d="M3140 5760 l-35 -7 38 -2 c20 0 37 4 37 9 0 6 -1 9 -2 9 -2 -1 -19
-5 -38 -9z"/>
<path d="M3248 5753 c7 -3 16 -2 19 1 4 3 -2 6 -13 5 -11 0 -14 -3 -6 -6z"/>
<path d="M3897 6320 c-3 -11 -1 -23 4 -26 5 -3 9 6 9 20 0 31 -6 34 -13 6z"/>
<path d="M3881 6250 c0 -33 1 -34 11 -12 8 17 8 26 0 34 -9 9 -12 4 -11 -22z"/>
<path d="M2448 6163 c12 -2 32 -2 45 0 12 2 2 4 -23 4 -25 0 -35 -2 -22 -4z"/>
<path d="M2455 6140 c-11 -5 -33 -9 -50 -9 -22 -1 -26 -4 -16 -10 9 -6 29 -4
52 4 20 8 40 11 43 8 3 -4 6 -1 6 5 0 14 -7 14 -35 2z"/>
<path d="M2366 6002 c-2 -4 4 -9 15 -9 10 -1 19 2 19 8 0 11 -27 12 -34 1z"/>
<path d="M3502 6100 c0 -19 2 -27 5 -17 2 9 2 25 0 35 -3 9 -5 1 -5 -18z"/>
<path d="M3413 5985 c0 -27 2 -38 4 -22 2 15 2 37 0 50 -2 12 -4 0 -4 -28z"/>
<path d="M3493 5965 c0 -22 2 -30 4 -17 2 12 2 30 0 40 -3 9 -5 -1 -4 -23z"/>
<path d="M3270 5841 c0 -5 7 -11 15 -15 8 -3 15 -1 15 3 0 5 -7 11 -15 15 -8
3 -15 1 -15 -3z"/>
<path d="M4480 6000 c-13 -8 -13 -10 2 -10 9 0 20 5 23 10 8 13 -5 13 -25 0z"/>
<path d="M4413 5983 c9 -2 25 -2 35 0 9 3 1 5 -18 5 -19 0 -27 -2 -17 -5z"/>
<path d="M4438 5843 c18 -2 45 -2 60 0 15 2 0 4 -33 4 -33 0 -45 -2 -27 -4z"/>
<path d="M4590 5840 l-65 -7 55 -1 c30 0 73 3 95 7 32 7 34 9 10 8 -16 0 -59
-3 -95 -7z"/>
<path d="M4305 5746 c11 -8 24 -12 29 -8 5 3 1 9 -10 13 -31 12 -39 10 -19 -5z"/>
<path d="M4360 5724 c8 -3 25 -10 37 -16 13 -6 26 -8 30 -5 10 11 2 15 -42 21
-22 3 -33 3 -25 0z"/>
<path d="M4688 5723 c19 -3 32 -10 32 -19 0 -21 33 -17 48 6 12 19 10 20 -50
18 -35 0 -48 -3 -30 -5z m67 -13 c-3 -5 -10 -10 -16 -10 -5 0 -9 5 -9 10 0 6
7 10 16 10 8 0 12 -4 9 -10z"/>
<path d="M3871 6082 c0 -13 -6 -28 -11 -35 -6 -7 -24 -28 -40 -47 -30 -36 -36
-50 -22 -50 19 0 84 109 79 132 l-4 23 -2 -23z"/>
<path d="M3915 6037 c-4 -10 -5 -21 -1 -24 10 -10 18 4 13 24 -4 17 -4 17 -12
0z"/>
<path d="M3855 5831 c-8 -14 -65 -41 -86 -41 -10 0 -21 -4 -24 -10 -9 -14 49
-1 93 21 20 11 32 19 27 19 -6 0 -3 5 5 10 9 6 10 10 3 10 -6 0 -14 -4 -18 -9z"/>
<path d="M3773 5723 c9 -2 23 -2 30 0 6 3 -1 5 -18 5 -16 0 -22 -2 -12 -5z"/>
<path d="M2743 5995 c0 -22 2 -30 4 -17 2 12 2 30 0 40 -3 9 -5 -1 -4 -23z"/>
<path d="M4140 5908 c-34 -19 -34 -20 -6 -13 15 3 35 13 43 20 20 21 5 18 -37
-7z"/>
<path d="M3922 5687 c9 -9 33 -18 55 -20 21 -3 29 -2 18 0 -11 3 -22 9 -25 13
-3 5 -19 12 -35 16 -28 7 -29 6 -13 -9z"/>
<path d="M2035 5770 c4 -6 11 -8 16 -5 14 9 11 15 -7 15 -8 0 -12 -5 -9 -10z"/>
<path d="M2100 5772 c0 -7 -6 -12 -14 -12 -8 0 -17 -4 -20 -9 -4 -5 3 -7 14
-4 22 6 35 21 26 30 -3 4 -6 1 -6 -5z"/>
<path d="M1978 5753 c7 -3 16 -2 19 1 4 3 -2 6 -13 5 -11 0 -14 -3 -6 -6z"/>
<path d="M2600 5880 c-13 -8 -13 -10 2 -10 9 0 20 5 23 10 8 13 -5 13 -25 0z"/>
<path d="M2585 5829 c-5 -5 -21 -18 -35 -29 -14 -11 -20 -19 -13 -20 6 0 18 7
27 15 8 8 19 15 24 15 5 0 15 7 22 15 10 12 10 15 -1 15 -8 -1 -18 -5 -24 -11z"/>
<path d="M2365 5732 c-11 -9 -31 -33 -45 -52 -13 -19 -29 -40 -36 -47 -25 -26
-65 -124 -61 -150 4 -26 4 -26 6 5 0 17 6 32 11 32 6 0 10 5 10 11 0 18 43 99
52 99 4 0 8 4 8 9 0 5 18 29 40 52 22 24 40 47 40 51 0 11 -2 10 -25 -10z"/>
<path d="M2784 5722 c-10 -9 -32 -28 -49 -40 -34 -27 -105 -119 -105 -136 1
-11 59 53 60 66 0 10 69 78 79 78 11 0 45 39 39 45 -2 3 -13 -3 -24 -13z"/>
<path d="M3270 5620 c0 -5 5 -10 11 -10 5 0 7 5 4 10 -3 6 -8 10 -11 10 -2 0
-4 -4 -4 -10z"/>
<path d="M3212 5560 c0 -19 2 -27 5 -17 2 9 2 25 0 35 -3 9 -5 1 -5 -18z"/>
<path d="M2995 5572 c-20 -14 -37 -64 -25 -76 7 -7 10 -2 10 17 0 15 4 27 9
27 9 0 24 30 18 36 -1 2 -7 0 -12 -4z"/>
<path d="M3165 5445 c1 -75 6 -140 11 -145 5 -5 8 48 6 135 -2 80 -6 145 -11
145 -4 0 -7 -61 -6 -135z"/>
<path d="M3211 5463 c0 -35 3 -63 8 -63 6 0 12 -15 14 -32 2 -18 2 -13 0 12
-3 25 -8 68 -12 95 l-8 50 -2 -62z"/>
<path d="M3180 5248 c0 -23 6 -38 16 -42 10 -4 13 -2 8 6 -4 7 -9 23 -10 36
-4 39 -14 39 -14 0z"/>
<path d="M4071 5554 c-7 -8 -10 -18 -6 -22 3 -3 10 0 14 7 5 7 14 11 20 7 7
-5 9 -1 5 8 -8 20 -15 20 -33 0z"/>
<path d="M4118 5523 c6 -2 12 -10 12 -17 0 -7 16 -30 35 -52 19 -21 35 -33 35
-26 0 6 -5 12 -11 12 -5 0 -7 5 -4 10 3 6 3 10 -2 10 -4 0 -19 16 -32 35 -13
19 -29 35 -35 34 -7 0 -6 -3 2 -6z"/>
<path d="M4080 5511 c0 -5 7 -14 15 -21 8 -7 15 -17 15 -22 0 -5 6 -15 13 -22
6 -8 19 -24 27 -36 8 -12 23 -33 33 -45 9 -13 17 -26 17 -29 0 -4 9 -17 20
-28 11 -12 37 -50 58 -85 20 -34 40 -63 45 -63 10 0 -33 78 -60 107 -6 7 -15
22 -18 33 -3 11 -11 20 -16 20 -5 0 -9 7 -9 15 0 8 -4 15 -10 15 -5 0 -10 4
-10 10 0 5 -19 36 -43 67 -24 32 -47 66 -50 76 -7 17 -27 24 -27 8z"/>
<path d="M3642 5440 c-1 -19 5 -46 13 -60 8 -14 14 -33 15 -43 0 -10 8 -37 19
-60 10 -23 22 -51 26 -62 8 -19 8 -19 13 -1 2 10 0 21 -6 25 -5 3 -13 21 -17
39 -3 17 -10 32 -15 32 -4 0 -11 20 -14 45 -4 25 -11 45 -16 45 -5 0 -11 17
-13 38 l-4 37 -1 -35z"/>
<path d="M3670 5450 c0 -11 4 -20 9 -20 5 0 7 9 4 20 -3 11 -7 20 -9 20 -2 0
-4 -9 -4 -20z"/>
<path d="M3761 5428 c-1 -16 4 -28 9 -28 6 0 10 -7 10 -16 0 -19 65 -169 80
-184 3 -3 16 -26 30 -52 13 -27 28 -48 32 -48 4 0 -13 39 -39 88 -25 48 -53
101 -62 117 -8 17 -16 35 -17 40 -1 6 -11 33 -22 60 -18 42 -21 46 -21 23z"/>
<path d="M4310 5413 c0 -6 5 -15 10 -18 6 -4 26 -30 45 -58 20 -30 35 -44 35
-34 0 9 -4 17 -10 17 -5 0 -10 6 -10 14 0 8 -16 32 -35 53 -19 21 -35 33 -35
26z"/>
<path d="M4648 5433 c18 -2 45 -2 60 0 15 2 0 4 -33 4 -33 0 -45 -2 -27 -4z"/>
<path d="M4744 5423 c11 -11 48 -14 41 -3 -3 5 -16 10 -27 10 -12 0 -18 -3
-14 -7z"/>
<path d="M4840 5420 c0 -5 5 -10 10 -10 6 0 10 5 10 10 0 6 -4 10 -10 10 -5 0
-10 -4 -10 -10z"/>
<path d="M4810 5403 c8 -3 18 -11 22 -17 4 -6 10 -7 15 -3 9 10 -16 27 -37 26
-13 -1 -13 -1 0 -6z"/>
<path d="M4451 5243 c-1 -16 32 -82 41 -83 4 0 2 14 -3 30 -6 17 -15 30 -19
30 -5 0 -11 8 -13 18 -3 9 -5 12 -6 5z"/>
<path d="M4450 4952 c0 -6 5 -23 10 -38 8 -20 14 -24 22 -16 8 8 5 18 -11 38
-11 15 -21 22 -21 16z"/>
<path d="M3466 5003 c-8 -95 -7 -186 2 -238 5 -24 7 14 7 100 0 77 3 155 7
172 3 18 3 35 -1 38 -5 2 -11 -30 -15 -72z"/>
<path d="M3596 5022 c6 -4 14 -25 18 -47 4 -22 12 -45 16 -50 5 -6 10 -24 13
-40 2 -17 3 -6 1 23 -3 29 -8 60 -13 70 -5 9 -12 25 -15 35 -3 9 -11 17 -18
17 -9 0 -10 -3 -2 -8z"/>
<path d="M3145 4773 c-11 -25 -12 -40 -5 -47 7 -7 10 -4 10 10 0 10 7 31 14
47 8 15 11 27 6 27 -6 0 -17 -17 -25 -37z"/>
<path d="M3617 4675 c5 -63 23 -102 23 -49 0 17 -4 34 -9 40 -5 5 -12 23 -14
39 -2 17 -2 3 0 -30z"/>
<path d="M3472 4525 c0 -16 2 -22 5 -12 2 9 2 23 0 30 -3 6 -5 -1 -5 -18z"/>
<path d="M2730 5090 c-9 -6 -10 -10 -3 -10 6 0 15 5 18 10 8 12 4 12 -15 0z"/>
<path d="M2708 5046 c-8 -7 -23 -16 -35 -20 -24 -8 -52 -36 -35 -36 6 0 17 6
24 13 7 6 33 22 58 34 32 16 39 23 23 23 -12 0 -28 -6 -35 -14z"/>
<path d="M2455 5040 c3 -5 10 -10 16 -10 5 0 9 5 9 10 0 6 -7 10 -16 10 -8 0
-12 -4 -9 -10z"/>
<path d="M2846 4925 c-10 -18 -16 -39 -13 -47 4 -9 6 -7 6 5 1 9 5 17 10 17 7
0 23 51 17 57 -1 1 -10 -13 -20 -32z"/>
<path d="M2671 4750 c-14 -12 -18 -20 -10 -20 8 0 20 9 27 20 15 25 13 25 -17
0z"/>
<path d="M444 6123 c4 -5 60 -9 124 -9 65 -1 140 -5 167 -8 28 -3 73 -9 100
-12 28 -3 61 -8 75 -10 14 -3 43 -7 65 -9 l40 -5 -45 15 c-25 8 -91 18 -147
21 -57 4 -103 11 -103 15 0 5 -64 9 -142 9 -78 0 -138 -3 -134 -7z"/>
<path d="M1022 6065 c10 -11 48 -14 48 -4 0 5 -12 9 -27 9 -14 0 -24 -2 -21
-5z"/>
<path d="M8973 5663 c9 -2 23 -2 30 0 6 3 -1 5 -18 5 -16 0 -22 -2 -12 -5z"/>
<path d="M8918 5643 c7 -3 16 -2 19 1 4 3 -2 6 -13 5 -11 0 -14 -3 -6 -6z"/>
<path d="M8868 5633 c6 -2 18 -2 25 0 6 3 1 5 -13 5 -14 0 -19 -2 -12 -5z"/>
<path d="M8805 5616 c-43 -12 -87 -35 -68 -36 6 0 14 4 17 9 3 5 26 12 51 15
25 4 45 11 45 17 0 5 -1 8 -2 8 -2 -1 -21 -7 -43 -13z"/>
<path d="M8688 5573 c7 -3 16 -2 19 1 4 3 -2 6 -13 5 -11 0 -14 -3 -6 -6z"/>
<path d="M8625 5550 c-13 -5 -14 -9 -5 -9 8 0 24 4 35 9 13 5 14 9 5 9 -8 0
-24 -4 -35 -9z"/>
<path d="M8576 5521 c-4 -5 3 -7 14 -4 23 6 26 13 6 13 -8 0 -17 -4 -20 -9z"/>
<path d="M8480 5479 c0 -5 5 -7 10 -4 6 3 10 8 10 11 0 2 -4 4 -10 4 -5 0 -10
-5 -10 -11z"/>
<path d="M8430 5460 c-18 -12 -2 -12 25 0 13 6 15 9 5 9 -8 0 -22 -4 -30 -9z"/>
<path d="M8380 5430 c-24 -15 -7 -18 20 -3 14 7 18 13 10 13 -8 0 -22 -4 -30
-10z"/>
<path d="M8250 5350 c-9 -6 -10 -10 -3 -10 6 0 15 5 18 10 8 12 4 12 -15 0z"/>
<path d="M8195 5317 c-17 -12 -38 -26 -47 -32 -61 -37 -139 -96 -118 -90 13 4
29 13 36 19 6 6 22 18 34 26 12 8 28 20 34 25 6 6 22 16 36 23 36 19 64 41 59
46 -3 3 -18 -5 -34 -17z"/>
<path d="M7990 5170 c-8 -5 -10 -10 -5 -10 6 0 17 5 25 10 8 5 11 10 5 10 -5
0 -17 -5 -25 -10z"/>
<path d="M7910 5110 c-8 -5 -10 -10 -5 -10 6 0 17 5 25 10 8 5 11 10 5 10 -5
0 -17 -5 -25 -10z"/>
<path d="M7848 5055 c-21 -19 -34 -35 -30 -35 5 0 23 16 42 35 44 45 36 45
-12 0z"/>
<path d="M3784 5007 c3 -10 6 -24 6 -30 0 -8 4 -7 12 1 10 10 8 16 -6 30 -18
16 -19 16 -12 -1z"/>
<path d="M7785 5000 c-3 -5 -1 -10 4 -10 6 0 11 5 11 10 0 6 -2 10 -4 10 -3 0
-8 -4 -11 -10z"/>
<path d="M3815 4931 c6 -50 34 -111 35 -75 0 11 -4 24 -10 30 -5 5 -14 27 -20
49 l-10 40 5 -44z"/>
<path d="M7676 4911 c-4 -5 3 -7 14 -4 23 6 26 13 6 13 -8 0 -17 -4 -20 -9z"/>
<path d="M7596 4835 c-15 -14 -24 -25 -20 -25 3 0 19 11 36 25 16 14 25 25 20
25 -5 0 -21 -11 -36 -25z"/>
<path d="M3850 4815 c0 -8 4 -15 8 -15 5 0 9 7 9 15 0 8 -4 15 -9 15 -4 0 -8
-7 -8 -15z"/>
<path d="M7550 4790 c-9 -6 -10 -10 -3 -10 6 0 15 5 18 10 8 12 4 12 -15 0z"/>
<path d="M7505 4750 c-3 -6 1 -7 9 -4 18 7 21 14 7 14 -6 0 -13 -4 -16 -10z"/>
<path d="M4750 4721 c0 -5 -21 -12 -47 -17 -52 -8 -51 -8 -73 -17 -8 -3 -28
-8 -45 -11 -16 -4 -41 -9 -55 -11 -14 -3 -50 -10 -80 -15 -48 -8 -44 -8 30 -4
47 3 90 9 95 14 6 4 30 10 54 14 88 13 196 56 143 56 -12 0 -22 -4 -22 -9z"/>
<path d="M7416 4663 c-6 -14 -5 -15 5 -6 7 7 10 15 7 18 -3 3 -9 -2 -12 -12z"/>
<path d="M7378 4628 c-14 -14 -15 -18 -4 -18 8 0 17 7 20 16 9 23 4 24 -16 2z"/>
<path d="M4275 4629 c-21 -5 -9 -7 37 -8 37 0 70 3 73 9 6 10 -58 10 -110 -1z"/>
<path d="M7301 4561 c-7 -5 -9 -11 -5 -14 5 -3 15 1 22 9 14 16 5 18 -17 5z"/>
<path d="M4017 4493 c8 -22 44 -83 48 -83 2 0 -2 14 -8 30 -6 17 -15 30 -19
30 -4 0 -8 6 -8 14 0 8 -4 18 -10 21 -6 4 -7 -1 -3 -12z"/>
<path d="M7216 4473 c-6 -14 -5 -15 5 -6 7 7 10 15 7 18 -3 3 -9 -2 -12 -12z"/>
<path d="M7128 4394 c-45 -42 -50 -55 -9 -22 24 20 57 58 49 58 -2 0 -20 -16
-40 -36z"/>
<path d="M4105 4361 c4 -13 17 -34 29 -45 12 -12 32 -36 45 -53 12 -18 28 -33
34 -32 9 0 8 2 0 6 -7 2 -13 11 -13 18 0 7 -4 15 -10 17 -5 2 -28 28 -51 58
-25 34 -38 46 -34 31z"/>
<path d="M7070 4342 c0 -6 -8 -13 -17 -15 -16 -4 -16 -5 -1 -6 18 -1 34 16 24
26 -3 4 -6 1 -6 -5z"/>
<path d="M6945 4238 c-30 -25 -41 -38 -27 -34 23 8 102 77 86 75 -5 0 -31 -19
-59 -41z"/>
<path d="M4257 4175 c3 -8 9 -12 14 -9 12 7 11 11 -5 17 -10 4 -13 1 -9 -8z"/>
<path d="M6850 4163 c-18 -16 -45 -39 -59 -51 l-26 -24 35 23 c19 13 37 26 40
29 3 3 18 16 34 28 16 12 24 22 19 22 -5 0 -24 -12 -43 -27z"/>
<path d="M4295 4140 c21 -24 26 -25 19 -6 -3 8 -13 17 -22 21 -13 5 -13 2 3
-15z"/>
<path d="M4330 4115 c0 -5 5 -17 10 -25 5 -8 10 -10 10 -5 0 6 -5 17 -10 25
-5 8 -10 11 -10 5z"/>
<path d="M4390 4051 c0 -9 30 -24 36 -18 2 1 -6 8 -16 15 -11 7 -20 8 -20 3z"/>
<path d="M4460 3990 c13 -11 30 -20 39 -19 11 0 9 3 -5 9 -12 5 -25 13 -29 19
-3 6 -11 11 -17 11 -6 0 -1 -9 12 -20z"/>
<path d="M6610 3988 c-34 -19 -34 -20 -6 -13 15 3 35 13 43 20 20 21 5 18 -37
-7z"/>
<path d="M4570 3920 c8 -5 20 -10 25 -10 6 0 3 5 -5 10 -8 5 -19 10 -25 10 -5
0 -3 -5 5 -10z"/>
<path d="M6445 3890 c-13 -5 -14 -9 -5 -9 8 0 24 4 35 9 13 5 14 9 5 9 -8 0
-24 -4 -35 -9z"/>
<path d="M3515 3879 c-420 -53 -842 -341 -911 -622 -34 -136 18 -238 143 -283
52 -18 182 -17 256 2 198 51 396 239 482 459 29 74 46 185 27 185 -6 0 -38
-53 -72 -119 -107 -206 -261 -367 -433 -453 -190 -95 -357 -32 -357 136 0 249
383 552 798 632 114 22 297 23 380 1 77 -20 164 -57 160 -67 -2 -5 -41 -41
-88 -82 -124 -109 -367 -384 -528 -598 -71 -94 -186 -232 -270 -325 -142 -156
-271 -247 -398 -280 -76 -20 -228 -20 -285 0 -79 28 -140 92 -125 131 4 11 15
10 55 -2 58 -17 95 -7 112 30 27 59 -19 116 -94 116 -42 0 -54 -5 -82 -33 -39
-39 -51 -87 -35 -145 25 -96 129 -151 296 -160 244 -11 463 84 689 299 97 93
206 231 375 474 198 286 420 548 448 531 31 -19 56 -91 56 -161 0 -110 -56
-225 -173 -356 -89 -99 -215 -167 -248 -133 -61 60 -160 41 -146 -29 6 -33 29
-47 92 -56 38 -5 47 -10 49 -28 5 -37 -43 -112 -144 -222 -103 -113 -136 -165
-136 -218 0 -136 173 -122 391 31 l76 53 -4 -44 c-9 -121 82 -161 220 -96 67
31 203 129 253 182 35 37 40 37 73 11 32 -25 101 -27 145 -4 16 8 62 43 102
76 39 33 100 80 136 104 l65 44 3 -35 c4 -48 -25 -199 -49 -256 -11 -26 -36
-61 -55 -80 -29 -28 -42 -33 -94 -37 -41 -3 -65 0 -76 9 -14 12 -12 14 17 24
45 15 61 56 34 85 -41 46 -115 7 -115 -61 0 -87 104 -122 252 -84 84 22 156
56 251 118 l82 53 0 -67 c0 -58 4 -71 24 -93 43 -45 101 -34 203 41 l46 33 7
-29 c15 -67 87 -87 188 -51 113 41 209 105 407 273 68 59 125 105 127 103 2
-1 -17 -38 -42 -81 -54 -95 -78 -165 -78 -224 0 -36 5 -49 28 -69 25 -21 36
-24 83 -19 106 11 242 92 442 262 129 110 208 167 256 185 28 11 54 7 54 -8 0
-5 -51 -54 -114 -110 -95 -84 -120 -112 -146 -166 -53 -108 -25 -161 84 -160
56 0 81 8 169 52 4 2 -1 -10 -12 -28 -14 -25 -38 -40 -100 -65 -321 -131 -531
-339 -477 -469 37 -88 130 -67 281 63 71 61 117 111 269 286 l113 130 64 14
c106 21 211 68 320 141 117 77 189 140 189 164 0 25 -15 19 -77 -32 -159 -130
-310 -211 -442 -236 -31 -5 -32 -5 -20 12 45 58 223 253 313 342 58 57 106
110 106 117 0 8 -14 13 -37 13 -44 0 -73 -22 -337 -250 -92 -80 -185 -157
-208 -172 -65 -44 -138 -50 -138 -11 0 9 65 82 144 163 118 119 146 153 151
183 8 42 -11 81 -45 92 -58 18 -210 -64 -351 -191 -165 -149 -336 -258 -422
-270 -39 -6 -46 -4 -56 15 -33 61 87 240 358 536 137 150 481 562 481 576 0
20 -33 33 -71 27 -16 -2 -97 -85 -252 -258 -126 -140 -258 -290 -294 -333 -35
-43 -92 -99 -126 -125 -33 -26 -105 -83 -159 -127 -217 -176 -286 -227 -364
-266 -87 -44 -156 -56 -161 -29 -7 30 63 117 209 263 81 81 148 154 148 162 0
11 -13 15 -54 15 -43 0 -60 -5 -84 -25 -34 -29 -42 -31 -42 -11 0 24 -41 46
-85 46 -53 -1 -157 -37 -230 -80 -32 -19 -101 -75 -153 -123 -95 -88 -231
-186 -286 -207 -29 -11 -29 -10 -12 12 64 88 81 228 40 328 -15 34 -14 35 15
60 41 33 59 86 38 107 -10 10 -24 13 -40 9 -28 -7 -67 -62 -67 -94 0 -16 -24
-38 -89 -81 -49 -33 -116 -83 -149 -110 -33 -28 -75 -59 -94 -71 -39 -23 -96
-26 -124 -6 -19 14 -18 16 14 74 62 114 30 182 -85 182 -106 -1 -254 -78 -391
-204 -154 -141 -353 -266 -433 -269 -63 -3 -50 28 61 149 118 128 155 193 155
274 0 30 -3 67 -8 83 -6 22 -4 27 10 27 43 0 186 61 246 103 126 90 196 216
205 368 5 105 -11 161 -67 235 l-39 51 51 34 c93 62 64 90 -39 39 l-66 -32
-56 25 c-160 70 -295 88 -477 66z m915 -1018 c23 -45 -46 -143 -179 -253 -96
-79 -215 -148 -256 -148 -37 0 -48 23 -31 64 17 41 172 205 250 265 109 84
194 112 216 72z m1207 3 c8 -21 -20 -57 -166 -212 -136 -144 -201 -195 -241
-190 -100 12 117 295 294 384 76 37 104 42 113 18z m1049 -643 c-128 -163
-235 -277 -290 -308 -38 -22 -75 -16 -87 15 -24 62 42 159 168 249 64 46 284
165 291 158 2 -2 -35 -53 -82 -114z"/>
<path d="M6385 3860 c-13 -5 -14 -9 -5 -9 8 0 24 4 35 9 13 5 14 9 5 9 -8 0
-24 -4 -35 -9z"/>
<path d="M4698 3833 c7 -3 16 -2 19 1 4 3 -2 6 -13 5 -11 0 -14 -3 -6 -6z"/>
<path d="M6325 3830 c-13 -5 -14 -9 -5 -9 8 0 24 4 35 9 13 5 14 9 5 9 -8 0
-24 -4 -35 -9z"/>
<path d="M4730 3826 c0 -2 7 -6 15 -10 8 -3 15 -1 15 4 0 6 -7 10 -15 10 -8 0
-15 -2 -15 -4z"/>
<path d="M4778 3803 c7 -3 16 -2 19 1 4 3 -2 6 -13 5 -11 0 -14 -3 -6 -6z"/>
<path d="M6238 3793 c7 -3 16 -2 19 1 4 3 -2 6 -13 5 -11 0 -14 -3 -6 -6z"/>
<path d="M6208 3773 c7 -3 16 -2 19 1 4 3 -2 6 -13 5 -11 0 -14 -3 -6 -6z"/>
<path d="M4880 3760 c0 -5 4 -10 9 -10 6 0 13 5 16 10 3 6 -1 10 -9 10 -9 0
-16 -4 -16 -10z"/>
<path d="M4933 3743 c9 -2 23 -2 30 0 6 3 -1 5 -18 5 -16 0 -22 -2 -12 -5z"/>
<path d="M6118 3743 c6 -2 18 -2 25 0 6 3 1 5 -13 5 -14 0 -19 -2 -12 -5z"/>
<path d="M4986 3728 c3 -4 12 -8 20 -8 8 0 14 4 14 8 0 4 -9 8 -19 8 -11 0
-17 -4 -15 -8z"/>
<path d="M5048 3713 c7 -3 16 -2 19 1 4 3 -2 6 -13 5 -11 0 -14 -3 -6 -6z"/>
<path d="M6028 3713 c7 -3 16 -2 19 1 4 3 -2 6 -13 5 -11 0 -14 -3 -6 -6z"/>
<path d="M5110 3700 c-12 -8 -10 -10 8 -10 13 0 20 4 17 10 -7 12 -6 12 -25 0z"/>
<path d="M5965 3700 c-3 -6 1 -7 9 -4 18 7 21 14 7 14 -6 0 -13 -4 -16 -10z"/>
<path d="M5183 3683 c9 -2 25 -2 35 0 9 3 1 5 -18 5 -19 0 -27 -2 -17 -5z"/>
<path d="M5883 3683 c9 -2 23 -2 30 0 6 3 -1 5 -18 5 -16 0 -22 -2 -12 -5z"/>
<path d="M5308 3663 c6 -2 18 -2 25 0 6 3 1 5 -13 5 -14 0 -19 -2 -12 -5z"/>
<path d="M5773 3663 c9 -2 23 -2 30 0 6 3 -1 5 -18 5 -16 0 -22 -2 -12 -5z"/>
<path d="M5503 3653 c43 -2 110 -2 150 0 40 1 5 3 -78 3 -82 0 -115 -2 -72 -3z"/>
<path d="M4014 1915 c-99 -49 -232 -180 -418 -411 -36 -45 -102 -111 -148
-147 -90 -69 -114 -94 -105 -104 3 -3 28 12 54 34 74 61 78 60 28 -8 -32 -44
-55 -66 -73 -69 -22 -4 -28 -12 -32 -43 -4 -28 -38 -81 -137 -216 -73 -99
-133 -184 -133 -190 0 -6 14 -11 30 -11 28 0 42 16 165 183 l136 182 48 7 c77
12 154 45 251 108 l89 59 -20 -39 c-46 -89 -32 -150 34 -150 35 0 125 39 172
74 49 37 51 37 47 1 -5 -41 25 -75 66 -75 43 0 123 43 195 103 55 48 67 54 77
42 22 -27 84 -18 132 18 68 52 76 54 36 9 -88 -98 -89 -172 -2 -172 47 0 94
21 172 77 l65 46 -6 -39 c-18 -113 104 -113 253 -1 51 39 59 41 110 39 30 -2
66 1 80 6 25 9 25 9 22 -29 -3 -32 1 -43 26 -69 25 -24 39 -30 75 -30 59 0
146 45 233 120 100 87 184 150 200 150 8 0 14 -8 14 -19 0 -21 -15 -41 -112
-157 -37 -45 -68 -84 -68 -88 0 -3 17 -6 38 -6 33 0 42 6 74 48 20 26 64 74
97 106 l59 59 -5 -40 c-15 -116 82 -118 210 -5 31 28 78 66 104 83 l46 32 -7
-59 c-10 -88 -33 -150 -67 -179 -31 -25 -72 -32 -98 -16 -11 7 -9 10 7 15 40
13 34 66 -7 66 -44 0 -57 -68 -19 -94 31 -22 107 -20 172 5 60 22 190 103 220
138 36 40 6 34 -51 -11 -32 -25 -76 -55 -99 -66 l-41 -21 24 46 c25 51 30 111
12 162 -10 28 -9 35 10 52 27 25 28 69 2 69 -23 0 -37 -16 -46 -52 -5 -17 -22
-36 -48 -52 -23 -13 -78 -54 -122 -91 -91 -76 -120 -91 -142 -73 -21 17 -10
69 26 122 17 25 31 47 31 50 0 3 -11 6 -25 6 -14 0 -41 -15 -64 -35 -46 -41
-53 -43 -45 -11 3 14 3 34 -1 45 -16 52 -115 3 -256 -125 -94 -85 -176 -135
-232 -141 -49 -6 -71 11 -65 49 2 18 16 28 66 45 119 43 204 125 176 171 -31
49 -152 10 -244 -79 -55 -53 -102 -79 -144 -79 -40 0 -40 17 -1 62 58 68 60
118 6 118 -62 0 -123 -88 -101 -145 8 -21 4 -28 -27 -54 -53 -44 -150 -93
-176 -89 -55 8 -22 83 87 196 43 45 77 84 75 86 -2 2 -17 6 -32 10 -26 6 -38
-2 -125 -87 -174 -167 -322 -252 -322 -185 0 16 37 59 120 140 66 64 120 119
120 122 0 3 -19 6 -43 6 -47 0 -88 -22 -205 -111 -74 -56 -101 -66 -132 -49
l-21 11 21 33 c22 37 26 86 8 104 -7 7 -32 12 -58 12 -63 0 -153 -45 -242
-122 -98 -85 -133 -110 -195 -142 -87 -44 -118 -31 -89 38 21 49 39 72 294
370 122 142 222 265 222 273 0 8 -12 13 -30 13 -26 0 -53 -27 -240 -245 -169
-197 -225 -255 -288 -299 -99 -71 -175 -111 -234 -126 -91 -23 -88 -13 37 153
100 134 125 161 188 202 190 126 346 254 373 307 26 50 13 98 -26 98 -9 0 -39
-11 -66 -25z m81 -25 c16 -26 -68 -116 -190 -202 -73 -52 -165 -109 -165 -103
0 8 107 134 169 199 86 90 167 136 186 106z m258 -514 c14 -36 -61 -123 -171
-197 -102 -68 -156 -65 -112 6 27 43 153 161 200 185 42 23 76 25 83 6z m777
6 c0 -11 -55 -88 -69 -97 -17 -10 -24 21 -10 47 19 37 41 58 61 58 10 0 18 -4
18 -8z m350 -12 c0 -37 -85 -97 -165 -116 l-30 -7 34 39 c78 90 161 133 161
84z"/>
</g>
</svg>
